<svg id="Capa_1" data-name="Capa 1" xmlns="http://www.w3.org/2000/svg" xmlns:xlink="http://www.w3.org/1999/xlink" viewBox="0 0 1200 1000"><defs><style>.cls-1{fill:url(#Degradado_sin_nombre_23);}</style><linearGradient id="Degradado_sin_nombre_23" x1="599" y1="955" x2="599" y2="45" gradientUnits="userSpaceOnUse"><stop offset="0.07" stop-color="#f7e68a"/><stop offset="0.16" stop-color="#e8ba65"/><stop offset="0.32" stop-color="#f8e889"/><stop offset="0.72" stop-color="#e6b964"/></linearGradient></defs><title>Decoracion</title><path class="cls-1" d="M1156.67,110.14a70.4,70.4,0,0,1-20.62,3c-32.24,0-58.45-21.27-58.45-47.42a39.61,39.61,0,0,1,4.38-18l1.39-2.76H114.62l1.4,2.76a39.46,39.46,0,0,1,4.38,18c0,26.15-26.22,47.42-58.45,47.42a70.5,70.5,0,0,1-20.62-3l-3.33-1v783.1l3.33-1A70.5,70.5,0,0,1,62,888.15c32.23,0,58.45,21.28,58.45,47.42a39.46,39.46,0,0,1-3.75,16.73l-1.26,2.7h967.22l-1.26-2.7a39.46,39.46,0,0,1-3.75-16.73c0-26.14,26.21-47.42,58.45-47.42a70.45,70.45,0,0,1,20.62,3.05l3.33,1V109.12Zm-1.59,776.39a77.32,77.32,0,0,0-19-2.36c-34.94,0-63.37,23.05-63.37,51.4A42.65,42.65,0,0,0,1075.6,951H122.4a42.4,42.4,0,0,0,2.92-15.44c0-28.35-28.43-51.4-63.37-51.4a77.44,77.44,0,0,0-19,2.36V114.8a76.51,76.51,0,0,0,19,2.38c34.94,0,63.37-23.06,63.37-51.41A42.56,42.56,0,0,0,121.85,49h954.3a42.56,42.56,0,0,0-3.47,16.78c0,28.35,28.43,51.41,63.37,51.41a76.33,76.33,0,0,0,19-2.38Z"/><rect class="cls-1" x="58.19" y="132.31" width="3.01" height="732.41"/><rect class="cls-1" x="1136.8" y="132.31" width="3.01" height="732.41"/></svg>