<svg id="Capa_1" data-name="Capa 1" xmlns="http://www.w3.org/2000/svg" xmlns:xlink="http://www.w3.org/1999/xlink" viewBox="0 0 1000 1000"><defs><style>.cls-1{fill:url(#Degradado_sin_nombre_13);}.cls-2{fill:url(#New_Gradient_Swatch_1);}.cls-3{fill:url(#New_Gradient_Swatch_1-2);}.cls-4{fill:url(#New_Gradient_Swatch_1-3);}.cls-5{fill:url(#New_Gradient_Swatch_1-4);}.cls-6{fill:url(#New_Gradient_Swatch_1-5);}.cls-7{fill:url(#New_Gradient_Swatch_1-6);}.cls-8{fill:url(#New_Gradient_Swatch_1-7);}.cls-9{fill:url(#New_Gradient_Swatch_1-8);}.cls-10{fill:url(#New_Gradient_Swatch_1-9);}.cls-11{fill:url(#New_Gradient_Swatch_1-10);}.cls-12{fill:url(#New_Gradient_Swatch_1-11);}.cls-13{fill:url(#New_Gradient_Swatch_1-12);}.cls-14{fill:url(#New_Gradient_Swatch_1-13);}.cls-15{fill:url(#New_Gradient_Swatch_1-14);}.cls-16{fill:url(#New_Gradient_Swatch_1-15);}.cls-17{fill:url(#New_Gradient_Swatch_1-16);}.cls-18{fill:url(#Degradado_sin_nombre_23);}.cls-19{fill:url(#New_Gradient_Swatch_1-17);}.cls-20{fill:url(#New_Gradient_Swatch_1-18);}.cls-21{fill:url(#New_Gradient_Swatch_1-19);}.cls-22{fill:url(#New_Gradient_Swatch_1-20);}.cls-23{fill:url(#New_Gradient_Swatch_1-21);}.cls-24{fill:url(#Degradado_sin_nombre_23-2);}.cls-25{fill:url(#Degradado_sin_nombre_23-3);}.cls-26{fill:url(#Degradado_sin_nombre_23-4);}.cls-27{fill:url(#Degradado_sin_nombre_23-5);}.cls-28{fill:url(#Degradado_sin_nombre_23-6);}.cls-29{fill:url(#Degradado_sin_nombre_23-7);}.cls-30{fill:url(#Degradado_sin_nombre_23-8);}.cls-31{fill:url(#Degradado_sin_nombre_23-9);}.cls-32{fill:url(#Degradado_sin_nombre_23-10);}.cls-33{fill:url(#Degradado_sin_nombre_23-11);}.cls-34{fill:url(#Degradado_sin_nombre_23-12);}.cls-35{fill:url(#Degradado_sin_nombre_23-13);}.cls-36{fill:url(#Degradado_sin_nombre_23-14);}.cls-37{fill:url(#Degradado_sin_nombre_23-15);}.cls-38{fill:url(#Degradado_sin_nombre_23-16);}.cls-39{fill:url(#Degradado_sin_nombre_23-17);}.cls-40{fill:url(#Degradado_sin_nombre_23-18);}.cls-41{fill:url(#Degradado_sin_nombre_23-19);}.cls-42{fill:url(#Degradado_sin_nombre_23-20);}.cls-43{fill:url(#Degradado_sin_nombre_23-21);}.cls-44{fill:url(#Degradado_sin_nombre_23-22);}.cls-45{fill:url(#Degradado_sin_nombre_23-23);}.cls-46{fill:url(#Degradado_sin_nombre_23-24);}.cls-47{fill:url(#Degradado_sin_nombre_23-25);}.cls-48{fill:url(#Degradado_sin_nombre_23-26);}.cls-49{fill:url(#Degradado_sin_nombre_23-27);}.cls-50{fill:url(#Degradado_sin_nombre_23-28);}.cls-51{fill:url(#Degradado_sin_nombre_23-29);}.cls-52{fill:url(#Degradado_sin_nombre_23-30);}.cls-53{fill:url(#Degradado_sin_nombre_23-31);}.cls-54{fill:url(#Degradado_sin_nombre_23-32);}</style><linearGradient id="Degradado_sin_nombre_13" x1="393.59" y1="412.52" x2="604.42" y2="412.52" gradientUnits="userSpaceOnUse"><stop offset="0.09" stop-color="#f7e68a"/><stop offset="0.16" stop-color="#e8ba65"/><stop offset="0.32" stop-color="#f8e889"/><stop offset="0.72" stop-color="#e6b964"/></linearGradient><linearGradient id="New_Gradient_Swatch_1" x1="41.89" y1="899.29" x2="588.36" y2="352.82" gradientTransform="translate(550.35 987) rotate(180)" gradientUnits="userSpaceOnUse"><stop offset="0" stop-color="#281809"/><stop offset="0" stop-color="#2e1b0b"/><stop offset="0" stop-color="#492b13"/><stop offset="0" stop-color="#5f3719"/><stop offset="0" stop-color="#70411e"/><stop offset="0.01" stop-color="#7b4821"/><stop offset="0.01" stop-color="#824c23"/><stop offset="0.02" stop-color="#844d24"/><stop offset="0.04" stop-color="#f7e68a"/><stop offset="0.07" stop-color="#8e5b22"/><stop offset="0.09" stop-color="#9a682b"/><stop offset="0.12" stop-color="#ba8a43"/><stop offset="0.16" stop-color="#e8ba65"/><stop offset="0.32" stop-color="#f8e889"/><stop offset="0.72" stop-color="#e6b964"/><stop offset="1" stop-color="#603913"/></linearGradient><linearGradient id="New_Gradient_Swatch_1-2" x1="296.76" y1="1006.11" x2="576.91" y2="725.95" xlink:href="#New_Gradient_Swatch_1"/><linearGradient id="New_Gradient_Swatch_1-3" x1="-15.63" y1="1107.06" x2="741.98" y2="349.45" xlink:href="#New_Gradient_Swatch_1"/><linearGradient id="New_Gradient_Swatch_1-4" x1="257" y1="971.84" x2="566.45" y2="662.39" xlink:href="#New_Gradient_Swatch_1"/><linearGradient id="New_Gradient_Swatch_1-5" x1="218.05" y1="934.8" x2="552.38" y2="600.46" xlink:href="#New_Gradient_Swatch_1"/><linearGradient id="New_Gradient_Swatch_1-6" x1="172.18" y1="873.16" x2="507.79" y2="537.54" xlink:href="#New_Gradient_Swatch_1"/><linearGradient id="New_Gradient_Swatch_1-7" x1="110.98" y1="798.04" x2="449.39" y2="459.63" xlink:href="#New_Gradient_Swatch_1"/><linearGradient id="New_Gradient_Swatch_1-8" x1="77.23" y1="743.38" x2="409.73" y2="410.88" xlink:href="#New_Gradient_Swatch_1"/><linearGradient id="New_Gradient_Swatch_1-9" x1="-391.09" y1="909.32" x2="155.38" y2="362.85" gradientTransform="matrix(1, 0, 0, -1, 880.65, 987)" xlink:href="#New_Gradient_Swatch_1"/><linearGradient id="New_Gradient_Swatch_1-10" x1="-136.23" y1="1016.13" x2="143.92" y2="735.97" gradientTransform="matrix(1, 0, 0, -1, 880.65, 987)" xlink:href="#New_Gradient_Swatch_1"/><linearGradient id="New_Gradient_Swatch_1-11" x1="-451.48" y1="1119.94" x2="337.62" y2="330.84" gradientTransform="matrix(1, 0, 0, -1, 880.65, 987)" xlink:href="#New_Gradient_Swatch_1"/><linearGradient id="New_Gradient_Swatch_1-12" x1="-175.98" y1="981.87" x2="133.46" y2="672.43" gradientTransform="matrix(1, 0, 0, -1, 880.65, 987)" xlink:href="#New_Gradient_Swatch_1"/><linearGradient id="New_Gradient_Swatch_1-13" x1="-214.95" y1="944.82" x2="119.39" y2="610.48" gradientTransform="matrix(1, 0, 0, -1, 880.65, 987)" xlink:href="#New_Gradient_Swatch_1"/><linearGradient id="New_Gradient_Swatch_1-14" x1="-260.81" y1="883.18" x2="74.81" y2="547.57" gradientTransform="matrix(1, 0, 0, -1, 880.65, 987)" xlink:href="#New_Gradient_Swatch_1"/><linearGradient id="New_Gradient_Swatch_1-15" x1="-322" y1="808.07" x2="16.41" y2="469.66" gradientTransform="matrix(1, 0, 0, -1, 880.65, 987)" xlink:href="#New_Gradient_Swatch_1"/><linearGradient id="New_Gradient_Swatch_1-16" x1="-355.76" y1="753.4" x2="-23.26" y2="420.89" gradientTransform="matrix(1, 0, 0, -1, 880.65, 987)" xlink:href="#New_Gradient_Swatch_1"/><linearGradient id="Degradado_sin_nombre_23" x1="459.58" y1="455.45" x2="557.96" y2="455.45" gradientTransform="matrix(1, 0, 0, -1, -10, 987)" gradientUnits="userSpaceOnUse"><stop offset="0.07" stop-color="#f7e68a"/><stop offset="0.16" stop-color="#e8ba65"/><stop offset="0.32" stop-color="#f8e889"/><stop offset="0.72" stop-color="#e6b964"/></linearGradient><linearGradient id="New_Gradient_Swatch_1-17" x1="418.88" y1="447.59" x2="561.31" y2="305.15" gradientTransform="matrix(1, 0, 0, 1, 0, 0)" xlink:href="#New_Gradient_Swatch_1"/><linearGradient id="New_Gradient_Swatch_1-18" x1="292.36" y1="625.24" x2="415.38" y2="502.22" gradientTransform="translate(175.72 -141.01)" xlink:href="#New_Gradient_Swatch_1"/><linearGradient id="New_Gradient_Swatch_1-19" x1="82.17" y1="136.4" x2="130.96" y2="87.61" gradientTransform="matrix(0.88, 0.93, -0.92, 0.86, 502.71, 107.14)" xlink:href="#New_Gradient_Swatch_1"/><linearGradient id="New_Gradient_Swatch_1-20" x1="107.71" y1="240.77" x2="156.5" y2="191.98" gradientTransform="matrix(0.88, 0.93, -0.92, 0.86, 502.71, 107.14)" xlink:href="#New_Gradient_Swatch_1"/><linearGradient id="New_Gradient_Swatch_1-21" x1="190.27" y1="148.45" x2="239.07" y2="99.66" gradientTransform="matrix(0.88, 0.93, -0.92, 0.86, 502.71, 107.14)" xlink:href="#New_Gradient_Swatch_1"/><linearGradient id="Degradado_sin_nombre_23-2" x1="0" y1="913.1" x2="1000" y2="913.1" gradientTransform="matrix(1, 0, 0, 1, 0, 0)" xlink:href="#Degradado_sin_nombre_23"/><linearGradient id="Degradado_sin_nombre_23-3" x1="109.85" y1="713.7" x2="185.55" y2="713.7" gradientTransform="matrix(1, 0, 0, 1, 0, 0)" xlink:href="#Degradado_sin_nombre_23"/><linearGradient id="Degradado_sin_nombre_23-4" x1="194.44" y1="713.7" x2="227.29" y2="713.7" gradientTransform="matrix(1, 0, 0, 1, 0, 0)" xlink:href="#Degradado_sin_nombre_23"/><linearGradient id="Degradado_sin_nombre_23-5" x1="240.3" y1="713.7" x2="320.51" y2="713.7" gradientTransform="matrix(1, 0, 0, 1, 0, 0)" xlink:href="#Degradado_sin_nombre_23"/><linearGradient id="Degradado_sin_nombre_23-6" x1="327.08" y1="713.7" x2="387.44" y2="713.7" gradientTransform="matrix(1, 0, 0, 1, 0, 0)" xlink:href="#Degradado_sin_nombre_23"/><linearGradient id="Degradado_sin_nombre_23-7" x1="400.58" y1="713.7" x2="478.6" y2="713.7" gradientTransform="matrix(1, 0, 0, 1, 0, 0)" xlink:href="#Degradado_sin_nombre_23"/><linearGradient id="Degradado_sin_nombre_23-8" x1="525.82" y1="713.7" x2="592.34" y2="713.7" gradientTransform="matrix(1, 0, 0, 1, 0, 0)" xlink:href="#Degradado_sin_nombre_23"/><linearGradient id="Degradado_sin_nombre_23-9" x1="602.61" y1="713.7" x2="662.01" y2="713.7" gradientTransform="matrix(1, 0, 0, 1, 0, 0)" xlink:href="#Degradado_sin_nombre_23"/><linearGradient id="Degradado_sin_nombre_23-10" x1="676.11" y1="713.7" x2="747.28" y2="713.7" gradientTransform="matrix(1, 0, 0, 1, 0, 0)" xlink:href="#Degradado_sin_nombre_23"/><linearGradient id="Degradado_sin_nombre_23-11" x1="762.34" y1="713.7" x2="828.86" y2="713.7" gradientTransform="matrix(1, 0, 0, 1, 0, 0)" xlink:href="#Degradado_sin_nombre_23"/><linearGradient id="Degradado_sin_nombre_23-12" x1="839.13" y1="713.7" x2="913.73" y2="713.7" gradientTransform="matrix(1, 0, 0, 1, 0, 0)" xlink:href="#Degradado_sin_nombre_23"/><linearGradient id="Degradado_sin_nombre_23-13" x1="230.82" y1="786.97" x2="257.92" y2="786.97" gradientTransform="matrix(1, 0, 0, 1, 0, 0)" xlink:href="#Degradado_sin_nombre_23"/><linearGradient id="Degradado_sin_nombre_23-14" x1="263.61" y1="786.97" x2="285.43" y2="786.97" gradientTransform="matrix(1, 0, 0, 1, 0, 0)" xlink:href="#Degradado_sin_nombre_23"/><linearGradient id="Degradado_sin_nombre_23-15" x1="291.52" y1="786.97" x2="313.55" y2="786.97" gradientTransform="matrix(1, 0, 0, 1, 0, 0)" xlink:href="#Degradado_sin_nombre_23"/><linearGradient id="Degradado_sin_nombre_23-16" x1="320.3" y1="786.96" x2="346.7" y2="786.96" gradientTransform="matrix(1, 0, 0, 1, 0, 0)" xlink:href="#Degradado_sin_nombre_23"/><linearGradient id="Degradado_sin_nombre_23-17" x1="350" y1="788.98" x2="363.96" y2="788.98" gradientTransform="matrix(1, 0, 0, 1, 0, 0)" xlink:href="#Degradado_sin_nombre_23"/><linearGradient id="Degradado_sin_nombre_23-18" x1="369.54" y1="786.97" x2="391.37" y2="786.97" gradientTransform="matrix(1, 0, 0, 1, 0, 0)" xlink:href="#Degradado_sin_nombre_23"/><linearGradient id="Degradado_sin_nombre_23-19" x1="397.46" y1="786.97" x2="424.56" y2="786.97" gradientTransform="matrix(1, 0, 0, 1, 0, 0)" xlink:href="#Degradado_sin_nombre_23"/><linearGradient id="Degradado_sin_nombre_23-20" x1="430.25" y1="786.97" x2="442.43" y2="786.97" gradientTransform="matrix(1, 0, 0, 1, 0, 0)" xlink:href="#Degradado_sin_nombre_23"/><linearGradient id="Degradado_sin_nombre_23-21" x1="447.71" y1="786.76" x2="480.55" y2="786.76" gradientTransform="matrix(1, 0, 0, 1, 0, 0)" xlink:href="#Degradado_sin_nombre_23"/><linearGradient id="Degradado_sin_nombre_23-22" x1="496.28" y1="786.97" x2="509.48" y2="786.97" gradientTransform="matrix(1, 0, 0, 1, 0, 0)" xlink:href="#Degradado_sin_nombre_23"/><linearGradient id="Degradado_sin_nombre_23-23" x1="525.21" y1="786.76" x2="558.05" y2="786.76" gradientTransform="matrix(1, 0, 0, 1, 0, 0)" xlink:href="#Degradado_sin_nombre_23"/><linearGradient id="Degradado_sin_nombre_23-24" x1="560.29" y1="786.96" x2="584.96" y2="786.96" gradientTransform="matrix(1, 0, 0, 1, 0, 0)" xlink:href="#Degradado_sin_nombre_23"/><linearGradient id="Degradado_sin_nombre_23-25" x1="591.91" y1="786.96" x2="616.58" y2="786.96" gradientTransform="matrix(1, 0, 0, 1, 0, 0)" xlink:href="#Degradado_sin_nombre_23"/><linearGradient id="Degradado_sin_nombre_23-26" x1="621.91" y1="786.97" x2="643.73" y2="786.97" gradientTransform="matrix(1, 0, 0, 1, 0, 0)" xlink:href="#Degradado_sin_nombre_23"/><linearGradient id="Degradado_sin_nombre_23-27" x1="651.86" y1="787.07" x2="672.01" y2="787.07" gradientTransform="matrix(1, 0, 0, 1, 0, 0)" xlink:href="#Degradado_sin_nombre_23"/><linearGradient id="Degradado_sin_nombre_23-28" x1="678.86" y1="786.96" x2="705.25" y2="786.96" gradientTransform="matrix(1, 0, 0, 1, 0, 0)" xlink:href="#Degradado_sin_nombre_23"/><linearGradient id="Degradado_sin_nombre_23-29" x1="711.6" y1="786.97" x2="738.71" y2="786.97" gradientTransform="matrix(1, 0, 0, 1, 0, 0)" xlink:href="#Degradado_sin_nombre_23"/><linearGradient id="Degradado_sin_nombre_23-30" x1="744.38" y1="786.97" x2="756.57" y2="786.97" gradientTransform="matrix(1, 0, 0, 1, 0, 0)" xlink:href="#Degradado_sin_nombre_23"/><linearGradient id="Degradado_sin_nombre_23-31" x1="762.91" y1="786.96" x2="789.31" y2="786.96" gradientTransform="matrix(1, 0, 0, 1, 0, 0)" xlink:href="#Degradado_sin_nombre_23"/><linearGradient id="Degradado_sin_nombre_23-32" x1="796.51" y1="787.07" x2="816.67" y2="787.07" gradientTransform="matrix(1, 0, 0, 1, 0, 0)" xlink:href="#Degradado_sin_nombre_23"/></defs><title>Logo</title><path class="cls-1" d="M499,544.71c-58.12,0-105.41-59.3-105.41-132.19S440.88,280.34,499,280.34s105.42,59.29,105.42,132.18S557.13,544.71,499,544.71Zm0-255.6c-54.26,0-98.41,55.36-98.41,123.41S444.74,535.94,499,535.94s98.42-55.37,98.42-123.42S553.27,289.11,499,289.11Z"/><path class="cls-2" d="M203,94.94c26.08,9.3,99.19,47.54,113.62,148.47,9.14,63.88,42.71,97.33,66.11,113.29-.76,12-1.44,24-1.92,36.14a209.23,209.23,0,0,1-50.61-58.17,178.73,178.73,0,0,0,49.94,84.17c-.34,30.32,1.08,60.56,6,89.48C330.14,418.23,307,295.09,294.93,225,278.62,130.17,203,94.94,203,94.94Z"/><path class="cls-3" d="M189.26,105.39c42.16,15.16,74.5,67.69,77.76,73.13-2.06-3.19-16-21.74-73.53-36.48C38.63,102.35,13.42,10,13.42,10,37.59,45.74,124,82,189.26,105.39Z"/><path class="cls-4" d="M267,178.52c.2.32.29.48.29.48Z"/><path class="cls-5" d="M23.59,86.65c66.88,61.64,192,74.6,240,100.16,14.92,8,21.57,35.11,21.57,35.11s-18.58-13.15-79.28-15.77C61.56,199.87,19.3,82.69,23.59,86.65Z"/><path class="cls-6" d="M265.72,235.31c22.09,6.91,27,34.23,27,34.23-16-16.28-43-1.59-79.28,8.21C85.16,312.48,41.54,165.15,41.54,165.15,169.36,279.31,223.05,222,265.72,235.31Z"/><path class="cls-7" d="M245.61,298c46-18.06,59.95,36.48,59.95,36.48-24-13.13-61.66-.73-85.93,5.86-102.79,27.93-146-69.9-146-69.9C111.46,316,178.36,324.39,245.61,298Z"/><path class="cls-8" d="M285,356.31c27.29,3.44,39.12,43.16,37.81,42-4.29-4-18.32-20.2-60.11-11.09-72.26,15.75-91.82-22.46-91.82-22.46C209.78,382.23,248.12,351.64,285,356.31Z"/><path class="cls-9" d="M284,408.38C327.51,403.05,347,466,347,466c-18.65-24.91-36.81-14.77-67.86-17.33-49.27-4.07-66.32-40.94-66.32-40.94C226.63,412.52,246.52,413,284,408.38Z"/><path class="cls-10" d="M795,84.91C769,94.2,695.85,132.44,681.42,233.37c-9.14,63.89-42.71,97.33-66.11,113.29.76,12,1.44,24,1.92,36.14a209.23,209.23,0,0,0,50.61-58.17A178.73,178.73,0,0,1,617.9,408.8c.34,30.32-1.08,60.55-6,89.48,56-90.08,79.11-213.22,91.17-283.3C719.39,120.15,795,84.91,795,84.91Z"/><path class="cls-11" d="M808.75,95.37c-42.16,15.15-74.51,67.68-77.76,73.12,2.06-3.19,16-21.74,73.53-36.47C959.38,92.33,984.59,0,984.59,0,960.42,35.71,874,71.93,808.75,95.37Z"/><path class="cls-12" d="M731,168.49c-.2.32-.29.49-.29.49Z"/><path class="cls-13" d="M974.42,76.59c-66.88,61.68-192,74.64-240,100.2-14.92,7.94-21.57,35.11-21.57,35.11s18.58-13.15,79.28-15.78C936.44,189.89,978.71,72.66,974.42,76.59Z"/><path class="cls-14" d="M732.29,225.28c-22.09,6.92-27,34.24-27,34.24,16-16.28,43-1.59,79.28,8.21,128.32,34.73,171.94-112.58,171.94-112.58C828.65,269.29,775,211.93,732.29,225.28Z"/><path class="cls-15" d="M752.4,288c-46-18.06-60,36.48-60,36.48,24-13.14,61.67-.73,85.94,5.85,102.79,27.93,146-69.9,146-69.9C886.55,306,819.65,314.35,752.4,288Z"/><path class="cls-16" d="M713.06,346.26c-27.29,3.46-39.12,43.17-37.81,42,4.29-4,18.31-20.18,60.11-11.07,72.26,15.75,91.82-22.48,91.82-22.48C788.23,372.21,749.89,341.62,713.06,346.26Z"/><path class="cls-17" d="M714.05,398.36c-43.61-5.33-63,57.58-63,57.58,18.65-24.91,36.81-14.77,67.85-17.34,49.28-4.06,66.33-40.93,66.33-40.93C771.38,402.5,751.49,402.91,714.05,398.36Z"/><path class="cls-18" d="M483.21,636.68c3.33-31.49,6.64-62.83,10-94.41l-43.61,4v-22l39.94,5.08c-.74-1-1.26-1.6-1.7-2.32-1.27-1.94-2.57-3.85-3.74-5.88-2-3.54-4-7.19-5.95-10.75a112.3,112.3,0,0,1-8-18.74,52.44,52.44,0,0,1-2.33-21.43,78.17,78.17,0,0,1,1.56-11.17,57.44,57.44,0,0,1,7.54-18.52c3.67-5.59,8.14-10.09,13.76-12.4a20.38,20.38,0,0,1,18.73,1.18A33.22,33.22,0,0,1,521,441a62.8,62.8,0,0,1,7.29,18,73.17,73.17,0,0,1,1.88,20.19c-.12,5-1.58,9.58-3.1,14.05A117.2,117.2,0,0,1,522,506c-2.24,4.69-4.81,9.15-7.37,13.56-1.6,2.79-3.47,5.34-5.2,8-.29.45-.53,1-.88,1.6l39.43-5v22l-41.3-3.79c2.64,31.46,5.27,62.76,7.92,94.2Zm15.63-117c1.65-2.28,3.31-4.2,4.62-6.43,3.24-5.44,6.53-10.87,9.4-16.62a74.84,74.84,0,0,0,5.39-13.92c2-7.52,1.38-15.16-.77-22.65-1.8-6.23-4.37-11.63-8.64-15.64-4-3.77-8.48-5.28-13.38-3.84-5.95,1.73-9.91,6.64-12.89,13a35.09,35.09,0,0,0-1.71,4.07,50.81,50.81,0,0,0-2.18,20.16,50.12,50.12,0,0,0,6.28,19q3.82,7.11,7.93,14C494.69,513.76,496.74,516.54,498.84,519.66Z"/><rect class="cls-19" x="495.41" y="330.34" width="6.73" height="74.71"/><rect class="cls-20" x="534.38" y="382.77" width="5.42" height="64.92" transform="translate(952.31 -121.85) rotate(90)"/><polygon class="cls-21" points="503.56 300.36 511.58 304.19 503.38 307.51 498.77 313.9 494.51 307.23 486.49 303.41 494.69 300.09 499.3 293.69 503.56 300.36"/><polygon class="cls-22" points="430.23 414.5 438.25 418.33 430.04 421.65 425.44 428.04 421.17 421.37 413.16 417.55 421.36 414.23 425.97 407.83 430.23 414.5"/><polygon class="cls-23" points="587.67 411.8 595.69 415.62 587.49 418.94 582.88 425.34 578.62 418.67 570.6 414.84 578.8 411.52 583.41 405.13 587.67 411.8"/><path class="cls-24" d="M976,826.21c-4.32,0-7.93,2.26-8.75,5.26H32.75c-.82-3-4.43-5.26-8.75-5.26-4.93,0-24,6.57-24,6.57s19.07,6.58,24,6.58A9.82,9.82,0,0,0,31.81,836h78.92a8.8,8.8,0,0,0-3.84,5.65c-1.15,6.26,2.78,11.88,10.53,14.51,18.76,6.37,44.48-.87,61-7.55,17-6.87,32.72-9.67,51.84-6.05a123.74,123.74,0,0,1,16.09,4.51c-10.13-.37-20,1.5-28.77,6.94-24.41,15.1-12.56,44.2,19.19,46.19,13,.81,26.68-4.14,33.64-12.17,6.11-7,4.39-17.61-4.84-22.64-13.95-7.61-43,3.89-26.9,15.85a17,17,0,0,0,7.13,2.82c1.92.36,3.14-1.15,2.26-2.26a1.54,1.54,0,0,0,.15-1.22c-1-3.69,2.26-6.6,6.47-8.23,4.46-1.73,7.91-.66,12.07.25,4.48,6.19-1.52,14.82-8.45,18.61-9.09,5-22,6-32.24,2.59-27.9-9.39-15.73-38.35,10.52-42.56,12.42-2,26,1.75,37.4,5.06a120.51,120.51,0,0,1,18.57,7.1l2.13,1c10.95,10,35.71,11.7,50.77,10.66a104,104,0,0,0,24.66-4.78,67.23,67.23,0,0,1-21.73,7c-7.19.93-25.62.17-23.21,9.14,2.23,8.29,20.8,8.15,28.41,5.58,2.25-.76,4.45-1.62,6.61-2.55-1.51,1.42-3,2.87-4.4,4.34-5.75,6-14.17,16.71-5.26,23.19,9.64,7,17.5-1.07,23.16-12.17,1.46,5.29,4.77,10.5,10.64,12.91,3.94,1.61,8.29-.14,10.82-2.42,3.45-3.13,2.39-7.64,1.12-11.19-1.83-5.08-5.75-9.62-7.89-14.62a19,19,0,0,1-1.24-4.13,26.72,26.72,0,0,0,4.47,6c8.41,8.51,23.47,12.27,37.33,11.11a52.11,52.11,0,0,0,15.18-3.63c4.15-.55,8.25-1.29,12.5-1.49a48.17,48.17,0,0,1,19.15,3.4c11.86,4.58,17.45,14.62,15,24.08-2.85,11.19-18.06,12.88-28.76,6.4-5.31-3.22-7.17-8.23-2.57-12.26a10.52,10.52,0,0,1,1.94.17,6.42,6.42,0,0,1,2.67,1.39c1.65,1.34,1.21,2.67,1.1,4.26a1.2,1.2,0,0,0,.05.33c-.27,1,.29,2.07,2,2.32,16.72,2.6,12.8-21-5.23-15.09-21.13,6.9-8.4,24.89,10,26.85,21.28,2.27,27-17.06,21.15-28.39-3.25-6.31-10.86-11.54-19.42-13.86-9-2.43-16.49-2-24.4-.66,5.5-3.22,9.56-7.57,10.49-12.8,2.14-12.15-8.9-23.88-25.05-26.69-12.78-2.23-28,4.1-29.74,13.94-2.07,11.62,17.66,13.2,28,10.19a2.52,2.52,0,0,0,1.92-1.76,3.22,3.22,0,0,0,1.55-2.67c0-2.54-3.69-4.14-6.62-4.61-3.38-.56-7,.28-10.33.73a15.55,15.55,0,0,1-5.36-.12c-3.67-.79-3.75-4.18-2.75-6.56,3-3,8.21-5.34,12.26-6.29,20.95-4.87,38.41,14.84,29.59,28-8,11.93-31.78,13.18-46.06,7.81-18.14-6.83-20.43-23.36-12.09-35.71,7.16-10.59,22.61-16.64,38.17-17.66,17.94-1.18,33.35,6,46.55,14.12,11.22,6.89,21.34,15.35,28,25-3.47,5.23-5.87,10.8-6.43,16.62-.81,8.29,2.75,15.52,6.69,22.73a132.39,132.39,0,0,0-7.17,14.35c-3.89,10-1.33,21.27,5.32,31L496.51,973l14.08,27,14.09-27-9.55-7c6.71-9.74,9.32-21,5.41-31.11a132.3,132.3,0,0,0-7.16-14.35c3.93-7.21,7.49-14.44,6.68-22.73-.56-5.82-3-11.39-6.42-16.62,6.63-9.69,16.75-18.15,28-25,13.2-8.11,28.61-15.3,46.55-14.12,15.56,1,31,7.07,38.17,17.66,8.35,12.35,6,28.88-12.08,35.71-14.29,5.37-38,4.12-46.06-7.81-8.83-13.14,8.63-32.85,29.58-28,4.05,1,9.28,3.27,12.26,6.29,1,2.38.92,5.77-2.75,6.56a15.55,15.55,0,0,1-5.36.12c-3.3-.45-6.94-1.29-10.33-.73-2.93.47-6.62,2.07-6.62,4.61a3.21,3.21,0,0,0,1.56,2.67,2.49,2.49,0,0,0,1.92,1.76c10.37,3,30.09,1.43,28-10.19-1.76-9.84-17-16.17-29.75-13.94-16.15,2.81-27.19,14.54-25.05,26.69.93,5.23,5,9.58,10.49,12.8-7.91-1.39-15.43-1.77-24.4.66-8.56,2.32-16.17,7.55-19.42,13.86-5.82,11.33-.13,30.66,21.15,28.39,18.36-2,31.09-19.95,10-26.85-18-5.89-22,17.69-5.23,15.09,1.68-.25,2.23-1.33,2-2.32a1.75,1.75,0,0,0,.06-.33c-.12-1.59-.56-2.92,1.09-4.26a6.49,6.49,0,0,1,2.67-1.39,10.71,10.71,0,0,1,2-.17c4.59,4,2.74,9-2.57,12.26-10.7,6.48-25.92,4.79-28.77-6.4-2.41-9.46,3.18-19.5,15-24.08a48.22,48.22,0,0,1,19.16-3.4c4.24.2,8.34.94,12.49,1.49a52.11,52.11,0,0,0,15.18,3.63c13.86,1.16,28.92-2.6,37.34-11.11a27,27,0,0,0,4.46-6,19,19,0,0,1-1.24,4.13c-2.13,5-6,9.54-7.88,14.62-1.28,3.55-2.34,8.06,1.12,11.19,2.52,2.28,6.87,4,10.82,2.42,5.86-2.41,9.17-7.62,10.63-12.91C653.4,915.9,661.26,924,670.9,917c8.91-6.48.49-17.16-5.26-23.19-1.41-1.47-2.88-2.92-4.39-4.34,2.15.93,4.35,1.79,6.61,2.55,7.6,2.57,26.18,2.71,28.4-5.58,2.41-9-16-8.21-23.2-9.14a67.08,67.08,0,0,1-21.73-7A103.91,103.91,0,0,0,676,875.06c15.07,1,39.82-.65,50.77-10.66l2.13-1a120.9,120.9,0,0,1,18.57-7.1c11.39-3.31,25-7,37.4-5.06,26.25,4.21,38.42,33.17,10.52,42.56-10.23,3.44-23.15,2.38-32.24-2.59-6.93-3.79-12.93-12.42-8.45-18.61,4.16-.91,7.62-2,12.07-.25,4.21,1.63,7.49,4.54,6.47,8.23a1.54,1.54,0,0,0,.15,1.22c-.87,1.11.35,2.62,2.26,2.26a16.92,16.92,0,0,0,7.13-2.82c16.15-12-12.94-23.46-26.9-15.85-9.23,5-11,15.6-4.83,22.64,7,8,20.67,13,33.64,12.17,31.74-2,43.59-31.09,19.18-46.19-8.79-5.44-18.64-7.31-28.76-6.94a123.16,123.16,0,0,1,16.08-4.51c19.12-3.62,34.85-.82,51.84,6.05,16.54,6.68,42.26,13.92,61,7.55,7.75-2.63,11.68-8.25,10.52-14.51a8.8,8.8,0,0,0-3.84-5.65h57.48a9.82,9.82,0,0,0,7.81,3.38c4.93,0,24-6.58,24-6.58S980.93,826.21,976,826.21ZM289.78,856.77a15.34,15.34,0,0,0,1,2.52A171,171,0,0,0,269,851c-7.72-3.12-16.44-5.39-24.44-7.84a116.88,116.88,0,0,0-32.47-5.66c-22.4-.41-39.29,11.23-60.26,14.84-8.89,1.53-23.85,3.24-32.54-.42a.28.28,0,0,1,0-.08.66.66,0,0,0,0-.44,8.17,8.17,0,0,0-.22-1,3.19,3.19,0,0,1-.16-1.67,3.51,3.51,0,0,1,.67-1.37A1.48,1.48,0,0,1,120,847c.11-.1.8-.55.56-.42a4.66,4.66,0,0,1,1.37-.52l.22-.05h.69l.05,0c.14.11.34.33,0,0l.18.18s0,0,0,.12a9.25,9.25,0,0,0,.33,1,2.78,2.78,0,0,0,3,1.27,3.91,3.91,0,0,0,1.41-.22c10.61-3.61,7-9.35.1-12.44H296.25C290,841.11,288.29,851.55,289.78,856.77ZM359.31,885c-6.3,2.82-12.79,5.42-20.43,4.56a22.78,22.78,0,0,1-7.45-2.54c6.9,2.35,19.63-1,25.14-2.47a73,73,0,0,0,12.31-4.74A71.71,71.71,0,0,1,359.31,885Zm13.8,9.42c-.86,2.55-1.73,5.09-2.69,7.58a34.1,34.1,0,0,1-5.72,9.61,10.24,10.24,0,0,1-4.07,2.86,21,21,0,0,0,1-3,56,56,0,0,1,7-13.48c1.71-2.56,3.48-5,5.2-7.53A40.29,40.29,0,0,0,373.11,894.38Zm17.36,8c.85,1.59,2.37,7,1.31,10.14-.91-3.11-4.2-6-6.1-8.77-3.23-4.67-2.53-10.53-2.78-15.89a38.46,38.46,0,0,0,1.56,4.2C386,895.61,388.61,898.92,390.47,902.38ZM516,937.64c2.51,9.15,0,17.5-5.2,25.16l-.19-.13h0c-5.11-7.63-7.61-15.94-5.12-25a59.71,59.71,0,0,1,5.26-12.22A59.16,59.16,0,0,1,516,937.64Zm-2.48-45.55c3,8.32.79,15.88-2.78,23.31-3.57-7.43-5.79-15-2.78-23.31a45.9,45.9,0,0,1,2.78-6.12A45.9,45.9,0,0,1,513.5,892.09Zm122.26,11.66c-1.9,2.75-5.19,5.66-6.1,8.77-1.06-3.13.46-8.55,1.31-10.14,1.86-3.46,4.45-6.77,6-10.32a36.5,36.5,0,0,0,1.56-4.2C638.29,893.22,639,899.08,635.76,903.75Zm29.12-19.24c5.5,1.52,18.23,4.82,25.13,2.47a22.73,22.73,0,0,1-7.44,2.54c-7.65.86-14.13-1.74-20.44-4.56a72.34,72.34,0,0,1-9.57-5.19A72.79,72.79,0,0,0,664.88,884.51Zm-12.08,13.4a56.05,56.05,0,0,1,7,13.48,19.86,19.86,0,0,0,1,3,10.24,10.24,0,0,1-4.07-2.86A34.06,34.06,0,0,1,651,902c-1-2.49-1.84-5-2.69-7.58-.18-1.36-.43-2.69-.73-4C649.33,892.86,651.09,895.35,652.8,897.91ZM711,868.08c-19.47,6.95-48.06,5.51-68.32-3.4a31.23,31.23,0,0,0-3.66-1.83c-2.76-1.92-5.4-3.9-7.89-5.87-13.2-17.3-43.54-23-68.13-15.54-15.07,4.56-29.26,13.76-39.67,22.8a96.66,96.66,0,0,0-12.6,12.93,96,96,0,0,0-12.6-12.93c-10.41-9-24.6-18.24-39.67-22.8-24.59-7.43-54.92-1.76-68.13,15.54-2.49,2-5.13,3.95-7.89,5.87a31.23,31.23,0,0,0-3.66,1.83c-20.26,8.91-48.85,10.35-68.32,3.4-13.49-4.82-18.07-13.74-13.67-23.86a13.21,13.21,0,0,1,3-4.34c2.49.62,5.85.22,7,2.59.83,1.7.57,5.52-2.6,5.78-2.33.19-3.16,1.81-2.43,3,0,1.06,1,2.18,2.83,2.34,6.89.59,16.49-2.32,16.69-8.32.12-3.66-2.29-7-6-9.25h390.9c-3.7,2.27-6.11,5.59-6,9.25.21,6,9.8,8.91,16.69,8.32,1.87-.16,2.84-1.28,2.83-2.34.73-1.15-.09-2.77-2.43-3-3.16-.26-3.42-4.08-2.6-5.78,1.15-2.37,4.51-2,7-2.59a13.52,13.52,0,0,1,3,4.34C729.06,854.34,724.48,863.26,711,868.08Zm182.55-19.66a4,4,0,0,0,1.41.22,2.72,2.72,0,0,0,.63.08,2.6,2.6,0,0,0,2.42-1.35,9.25,9.25,0,0,0,.33-1c.06-.14,0-.13,0-.12l.18-.18c-.28.31-.08.09.05,0l0,0h.7l.22.05a4.63,4.63,0,0,1,1.36.52c-.24-.13.45.32.56.42a1.67,1.67,0,0,1,.37.38,3.5,3.5,0,0,1,.66,1.37,3.29,3.29,0,0,1-.15,1.67,6.64,6.64,0,0,0-.23,1,.66.66,0,0,0,0,.44l.06.08c-8.7,3.66-23.66,1.95-32.54.42-21-3.61-37.87-15.25-60.27-14.84a117,117,0,0,0-32.47,5.66c-8,2.45-16.72,4.72-24.43,7.84a170.53,170.53,0,0,0-21.79,8.26,14.5,14.5,0,0,0,1-2.52c1.49-5.22-.18-15.66-6.46-20.79H893.44C886.49,839.07,882.93,844.81,893.54,848.42Z"/><path class="cls-25" d="M170.49,749l-45.58-68.5V748H138.6v1H109.85v-1h13.69v-68.5H109.85v-1H129.7l40.79,61.45V679.45H156.8v-1h28.75v1H171.86V749Z"/><path class="cls-26" d="M194.44,749v-1h13.69v-68.5H194.44v-1h32.85v1H213.61V748h13.68v1Z"/><path class="cls-27" d="M305.45,749l-4.11-10.28a26.22,26.22,0,0,1-10.19,8.26,35.26,35.26,0,0,1-15.26,3,37.67,37.67,0,0,1-15.13-2.88,32.51,32.51,0,0,1-11.16-7.75,33.7,33.7,0,0,1-6.91-11.49,43.08,43.08,0,0,1,0-28.3,33.7,33.7,0,0,1,6.91-11.49,32.65,32.65,0,0,1,11.16-7.75,37.67,37.67,0,0,1,15.13-2.87q10,0,16.83,3.82a26.18,26.18,0,0,1,10.4,10.28,3.57,3.57,0,0,0,1.71-1.81,6.69,6.69,0,0,0,.62-2.93v-8.36h1.37V707h-1.37a32.51,32.51,0,0,0-1.92-11.28,25,25,0,0,0-5.68-9.07,26.33,26.33,0,0,0-9.24-6,34.51,34.51,0,0,0-12.72-2.17,31.62,31.62,0,0,0-13.9,2.77,25,25,0,0,0-9.24,7.56A30.86,30.86,0,0,0,247.62,700a60.56,60.56,0,0,0,0,27.4,30.86,30.86,0,0,0,5.13,11.23,25,25,0,0,0,9.24,7.56,31.62,31.62,0,0,0,13.9,2.77q9.17,0,15.53-3.43a25.48,25.48,0,0,0,9.92-9.26V714.2H287.66v-1h32.85v1H306.82V749Z"/><path class="cls-28" d="M340.76,749v-1h13.69l.14-68.5H340.83a39.46,39.46,0,0,0-4.26.25,6.93,6.93,0,0,0-4,1.92,12.19,12.19,0,0,0-3,5.18,33.62,33.62,0,0,0-1.17,10.08V707h-1.37V678.44h60.36V707h-1.38V696.88a33.62,33.62,0,0,0-1.17-10.08,12.19,12.19,0,0,0-2.95-5.18,7,7,0,0,0-4-1.92,39.5,39.5,0,0,0-4.27-.25H359.93V748h13.68v1Z"/><path class="cls-29" d="M445.75,749v-1h13.69V714.2h-39.7V748h13.69v1H400.58v-1h13.69v-68.5H400.58v-1h32.85v1H419.74V713.2h39.7V679.45H445.75v-1H478.6v1H464.91V748H478.6v1Z"/><path class="cls-30" d="M592.34,720.45a33.84,33.84,0,0,1-2,11.74,25.63,25.63,0,0,1-5.89,9.31,27.6,27.6,0,0,1-9.71,6.2A36.66,36.66,0,0,1,561.41,750a37.7,37.7,0,0,1-15.13-2.88,32.47,32.47,0,0,1-11.15-7.75,33.72,33.72,0,0,1-6.92-11.49,43.08,43.08,0,0,1,0-28.3,33.72,33.72,0,0,1,6.92-11.49,32.6,32.6,0,0,1,11.15-7.75,37.7,37.7,0,0,1,15.13-2.87q10,0,16.83,3.82a26.06,26.06,0,0,1,10.41,10.38,5.12,5.12,0,0,0,1.64-1.41,3.45,3.45,0,0,0,.69-2.12v-9.67h1.36V707H591a32.74,32.74,0,0,0-1.92-11.28,25.28,25.28,0,0,0-5.68-9.07,26.33,26.33,0,0,0-9.24-6,34.53,34.53,0,0,0-12.73-2.17,31.55,31.55,0,0,0-13.89,2.77,24.89,24.89,0,0,0-9.24,7.56A30.71,30.71,0,0,0,533.14,700a60.56,60.56,0,0,0,0,27.4,30.71,30.71,0,0,0,5.14,11.23,24.89,24.89,0,0,0,9.24,7.56A31.55,31.55,0,0,0,561.41,749a34.32,34.32,0,0,0,12.73-2.17,26.33,26.33,0,0,0,9.24-6,25.19,25.19,0,0,0,5.68-9.07A32.74,32.74,0,0,0,591,720.45Z"/><path class="cls-31" d="M603.15,749v-1h13.69v-68.5H602.61v-1H636v1H622.32V748h26a36.72,36.72,0,0,0,4.24-.25,6.93,6.93,0,0,0,4-1.92,12.29,12.29,0,0,0,2.94-5.18,34,34,0,0,0,1.16-10.08V720.45H662V749Z"/><path class="cls-32" d="M711.69,750a37.68,37.68,0,0,1-15.12-2.88,32.37,32.37,0,0,1-11.15-7.75,33.72,33.72,0,0,1-6.92-11.49,43.08,43.08,0,0,1,0-28.3,33.72,33.72,0,0,1,6.92-11.49,32.51,32.51,0,0,1,11.15-7.75,41.29,41.29,0,0,1,30.25,0A32.65,32.65,0,0,1,738,688.06a33.7,33.7,0,0,1,6.91,11.49,43.08,43.08,0,0,1,0,28.3A33.7,33.7,0,0,1,738,739.34a32.51,32.51,0,0,1-11.16,7.75A37.7,37.7,0,0,1,711.69,750Zm0-1a31.62,31.62,0,0,0,13.9-2.77,25.05,25.05,0,0,0,9.24-7.56A30.86,30.86,0,0,0,740,727.4a60.19,60.19,0,0,0,0-27.4,30.86,30.86,0,0,0-5.13-11.23,25.05,25.05,0,0,0-9.24-7.56,36.24,36.24,0,0,0-27.79,0,24.89,24.89,0,0,0-9.24,7.56A30.86,30.86,0,0,0,683.43,700a60.56,60.56,0,0,0,0,27.4,30.86,30.86,0,0,0,5.13,11.23,24.89,24.89,0,0,0,9.24,7.56A31.61,31.61,0,0,0,711.69,749Z"/><path class="cls-33" d="M828.86,720.45a33.84,33.84,0,0,1-2,11.74A25.63,25.63,0,0,1,821,741.5a27.56,27.56,0,0,1-9.72,6.2A36.6,36.6,0,0,1,797.93,750a37.7,37.7,0,0,1-15.13-2.88,32.47,32.47,0,0,1-11.15-7.75,33.72,33.72,0,0,1-6.92-11.49,43.08,43.08,0,0,1,0-28.3,33.72,33.72,0,0,1,6.92-11.49,32.6,32.6,0,0,1,11.15-7.75,37.7,37.7,0,0,1,15.13-2.87q10,0,16.83,3.82a26,26,0,0,1,10.41,10.38,5.12,5.12,0,0,0,1.64-1.41,3.44,3.44,0,0,0,.68-2.12v-9.67h1.37V707h-1.37a32.74,32.74,0,0,0-1.91-11.28,25.28,25.28,0,0,0-5.68-9.07,26.33,26.33,0,0,0-9.24-6,34.53,34.53,0,0,0-12.73-2.17,31.62,31.62,0,0,0-13.9,2.77,25.05,25.05,0,0,0-9.24,7.56A30.86,30.86,0,0,0,769.66,700a60.56,60.56,0,0,0,0,27.4,30.86,30.86,0,0,0,5.13,11.23,25.05,25.05,0,0,0,9.24,7.56,31.62,31.62,0,0,0,13.9,2.77,34.32,34.32,0,0,0,12.73-2.17,26.33,26.33,0,0,0,9.24-6,25.19,25.19,0,0,0,5.68-9.07,32.74,32.74,0,0,0,1.91-11.28Z"/><path class="cls-34" d="M893.88,679.45H880.19v-1h29.16v1H895.66l-21.08,26.69L900,748h13.69v1H880.05v-1h13.69L871,710.68,858.29,726.8V748H872v1H839.13v-1h13.68v-68.5H839.13v-1H872v1H858.29v45.23Z"/><path class="cls-35" d="M245.08,801.07v-.4h5.08l-5.23-9.51h-.66a12,12,0,0,1-2.21-.2,7.1,7.1,0,0,1-1.9-.65,2.86,2.86,0,0,1-1.3-1.17.87.87,0,0,1,.08-1,1.65,1.65,0,0,1,1.29-.42,5.24,5.24,0,0,1,1.86.42,5.93,5.93,0,0,1,1.65,1c.45.42.9.87,1.34,1.35l.15.2a6.74,6.74,0,0,0,2.9-.92,7.45,7.45,0,0,0,2.13-1.94,8.23,8.23,0,0,0,1.29-2.66A11.26,11.26,0,0,0,252,782a11.12,11.12,0,0,0-.5-3.41,8.19,8.19,0,0,0-1.5-2.78,7,7,0,0,0-2.41-1.87,7.49,7.49,0,0,0-3.3-.69h-6.35v27.41H243v.4H230.82v-.4h5.07V773.26h-5.07v-.4h13.45a9.94,9.94,0,0,1,3.76.72,10.24,10.24,0,0,1,3.09,2,9.54,9.54,0,0,1,2.11,2.9A8.31,8.31,0,0,1,254,782a8.46,8.46,0,0,1-.65,3.28,9,9,0,0,1-1.81,2.76,9.58,9.58,0,0,1-2.69,2,10.4,10.4,0,0,1-3.27,1l7.26,9.59h5.07v.4Zm-.4-10.31c-.24-.27-.61-.64-1.12-1.11a6.19,6.19,0,0,0-1.78-1.15,3.93,3.93,0,0,0-1.44-.37,1.23,1.23,0,0,0-1,.25c-.17.19-.16.44.05.76a2.5,2.5,0,0,0,1,.85,6.24,6.24,0,0,0,1.83.6,12,12,0,0,0,2,.17Z"/><path class="cls-36" d="M263.61,801.07v-.4h5.07V773.26h-5.07v-.4h21.82v11.4h-.5v-4a14.84,14.84,0,0,0-.43-4,5,5,0,0,0-1.1-2.07,2.46,2.46,0,0,0-1.47-.77,12.15,12.15,0,0,0-1.57-.1h-9.65v13.5h9.65v.41h-9.65v13.5h9.65a12.15,12.15,0,0,0,1.57-.1,2.46,2.46,0,0,0,1.47-.77,5,5,0,0,0,1.1-2.07,14.79,14.79,0,0,0,.43-4v-4h.5v11.4Z"/><path class="cls-37" d="M291.73,801.07v-.4h5.07V773.26h-5.28v-.4h12.39v.4h-5.08v27.41h9.65a12.15,12.15,0,0,0,1.57-.1,2.46,2.46,0,0,0,1.47-.77,4.88,4.88,0,0,0,1.09-2.07,14.34,14.34,0,0,0,.44-4v-4h.5v11.4Z"/><path class="cls-38" d="M333.5,801.48a13.23,13.23,0,0,1-5.61-1.15,12,12,0,0,1-4.13-3.11,13.72,13.72,0,0,1-2.57-4.59,18.47,18.47,0,0,1,0-11.33,13.72,13.72,0,0,1,2.57-4.59,12,12,0,0,1,4.13-3.11,14.26,14.26,0,0,1,11.22,0,12.15,12.15,0,0,1,4.14,3.11,13.7,13.7,0,0,1,2.56,4.59,18.47,18.47,0,0,1,0,11.33,13.7,13.7,0,0,1-2.56,4.59,12.15,12.15,0,0,1-4.14,3.11A13.2,13.2,0,0,1,333.5,801.48Zm0-.41a10.92,10.92,0,0,0,5.15-1.1,9.38,9.38,0,0,0,3.43-3,12.75,12.75,0,0,0,1.9-4.49,25.79,25.79,0,0,0,0-11,12.75,12.75,0,0,0-1.9-4.49,9.36,9.36,0,0,0-3.43-3,12.5,12.5,0,0,0-10.3,0,9.44,9.44,0,0,0-3.43,3,12.75,12.75,0,0,0-1.9,4.49,26.23,26.23,0,0,0,0,11,12.75,12.75,0,0,0,1.9,4.49,9.46,9.46,0,0,0,3.43,3A10.92,10.92,0,0,0,333.5,801.07Z"/><path class="cls-39" d="M350,804.7a8,8,0,0,0,3.3-.6,5.43,5.43,0,0,0,2.1-1.64,6.18,6.18,0,0,0,1.12-2.43,13.17,13.17,0,0,0,.33-3V773.26h-5.08v-.4H364v.4h-5.08V797a8,8,0,0,1-.61,3.13,7.4,7.4,0,0,1-1.75,2.56,8.51,8.51,0,0,1-2.79,1.73,10.17,10.17,0,0,1-3.73.64Z"/><path class="cls-40" d="M369.54,801.07v-.4h5.08V773.26h-5.08v-.4h21.83v11.4h-.51v-4a14.84,14.84,0,0,0-.43-4,5.11,5.11,0,0,0-1.09-2.07,2.49,2.49,0,0,0-1.48-.77,12.15,12.15,0,0,0-1.57-.1h-9.64v13.5h9.64v.41h-9.64v13.5h9.64a12.15,12.15,0,0,0,1.57-.1,2.49,2.49,0,0,0,1.48-.77,5.11,5.11,0,0,0,1.09-2.07,14.79,14.79,0,0,0,.43-4v-4h.51v11.4Z"/><path class="cls-41" d="M411.72,801.07v-.4h5.08l-5.23-9.51h-.66a12,12,0,0,1-2.21-.2,7.1,7.1,0,0,1-1.9-.65,2.86,2.86,0,0,1-1.3-1.17.87.87,0,0,1,.08-1,1.65,1.65,0,0,1,1.29-.42,5.24,5.24,0,0,1,1.86.42,5.93,5.93,0,0,1,1.65,1c.45.42.9.87,1.34,1.35l.15.2a6.74,6.74,0,0,0,2.9-.92,7.45,7.45,0,0,0,2.13-1.94,8.44,8.44,0,0,0,1.29-2.66,11.26,11.26,0,0,0,.43-3.18,11.43,11.43,0,0,0-.5-3.41,8.19,8.19,0,0,0-1.5-2.78,7.13,7.13,0,0,0-2.41-1.87,7.49,7.49,0,0,0-3.3-.69h-6.35v27.41h5.08v.4H397.46v-.4h5.07V773.26h-5.07v-.4h13.45a9.86,9.86,0,0,1,3.75.72,10.17,10.17,0,0,1,3.1,2,9.54,9.54,0,0,1,2.11,2.9,8.52,8.52,0,0,1,.12,6.85,9.14,9.14,0,0,1-1.8,2.76,9.58,9.58,0,0,1-2.69,2,10.4,10.4,0,0,1-3.27,1l7.26,9.59h5.07v.4Zm-.4-10.31c-.24-.27-.62-.64-1.12-1.11a6.19,6.19,0,0,0-1.78-1.15,3.93,3.93,0,0,0-1.44-.37,1.26,1.26,0,0,0-1,.25c-.17.19-.15.44,0,.76a2.6,2.6,0,0,0,1,.85,6.24,6.24,0,0,0,1.83.6,12,12,0,0,0,2,.17Z"/><path class="cls-42" d="M430.25,801.07v-.4h5.07V773.26h-5.07v-.4h12.18v.4h-5.08v27.41h5.08v.4Z"/><path class="cls-43" d="M468.26,801.07v-.4h5.08l-2.94-7.5H456.28l-2.94,7.5h5.08v.4H447.71v-.4h5.07l11.07-28.22h.56l11.06,28.22h5.08v.4Zm-4.92-26-6.9,17.65h13.8Z"/><path class="cls-44" d="M496.28,803.09l12.64-32.25h.56l-12.64,32.25Z"/><path class="cls-45" d="M545.77,801.07v-.4h5.08l-3-7.5H533.79l-2.94,7.5h5.07v.4H525.21v-.4h5.08l11.06-28.22h.56L553,800.67h5.07v.4Zm-4.92-26-6.91,17.65h13.81Z"/><path class="cls-46" d="M585,789.67a14.46,14.46,0,0,1-.74,4.69,10.29,10.29,0,0,1-2.18,3.73,10.11,10.11,0,0,1-3.6,2.48,12.78,12.78,0,0,1-5,.91,13.2,13.2,0,0,1-5.61-1.15,12.15,12.15,0,0,1-4.14-3.11,13.53,13.53,0,0,1-2.56-4.59,18.47,18.47,0,0,1,0-11.33,13.53,13.53,0,0,1,2.56-4.59,12.15,12.15,0,0,1,4.14-3.11,13.2,13.2,0,0,1,5.61-1.15,11.78,11.78,0,0,1,6.24,1.54,10,10,0,0,1,3.86,4.15,1.84,1.84,0,0,0,.61-.57,1.41,1.41,0,0,0,.25-.84v-3.87H585v11.4h-.51a14.07,14.07,0,0,0-.71-4.51,10.09,10.09,0,0,0-2.11-3.63,9.79,9.79,0,0,0-3.42-2.4,12.12,12.12,0,0,0-4.72-.86,11,11,0,0,0-5.16,1.11,9.4,9.4,0,0,0-3.42,3,12.76,12.76,0,0,0-1.91,4.49,26.23,26.23,0,0,0,0,11,12.76,12.76,0,0,0,1.91,4.49,9.43,9.43,0,0,0,3.42,3,11,11,0,0,0,5.16,1.1,11.94,11.94,0,0,0,4.72-.86,9.79,9.79,0,0,0,3.42-2.4,10.09,10.09,0,0,0,2.11-3.63,14.07,14.07,0,0,0,.71-4.51Z"/><path class="cls-47" d="M616.58,789.67a14.46,14.46,0,0,1-.74,4.69,10.29,10.29,0,0,1-2.18,3.73,10,10,0,0,1-3.6,2.48,12.78,12.78,0,0,1-4.95.91,13.2,13.2,0,0,1-5.61-1.15,12.15,12.15,0,0,1-4.14-3.11,13.7,13.7,0,0,1-2.56-4.59,18.47,18.47,0,0,1,0-11.33,13.7,13.7,0,0,1,2.56-4.59,12.15,12.15,0,0,1,4.14-3.11,13.2,13.2,0,0,1,5.61-1.15,11.78,11.78,0,0,1,6.24,1.54,10,10,0,0,1,3.86,4.15,1.84,1.84,0,0,0,.61-.57,1.41,1.41,0,0,0,.25-.84v-3.87h.51v11.4h-.51a13.8,13.8,0,0,0-.71-4.51,10,10,0,0,0-2.11-3.63,9.79,9.79,0,0,0-3.42-2.4,12.08,12.08,0,0,0-4.72-.86A10.92,10.92,0,0,0,600,774a9.36,9.36,0,0,0-3.43,3,12.57,12.57,0,0,0-1.9,4.49,25.79,25.79,0,0,0,0,11,12.57,12.57,0,0,0,1.9,4.49,9.38,9.38,0,0,0,3.43,3,10.92,10.92,0,0,0,5.15,1.1,11.9,11.9,0,0,0,4.72-.86,9.79,9.79,0,0,0,3.42-2.4,10,10,0,0,0,2.11-3.63,13.8,13.8,0,0,0,.71-4.51Z"/><path class="cls-48" d="M621.91,801.07v-.4H627V773.26h-5.08v-.4h21.82v11.4h-.5v-4a14.84,14.84,0,0,0-.43-4,4.88,4.88,0,0,0-1.1-2.07,2.46,2.46,0,0,0-1.47-.77,12.15,12.15,0,0,0-1.57-.1H629v13.5h9.65v.41H629v13.5h9.65a12.15,12.15,0,0,0,1.57-.1,2.46,2.46,0,0,0,1.47-.77,4.88,4.88,0,0,0,1.1-2.07,14.79,14.79,0,0,0,.43-4v-4h.5v11.4Z"/><path class="cls-49" d="M651.86,801.07v-11.4h.5v1.61a11.6,11.6,0,0,0,.66,4,8.89,8.89,0,0,0,1.88,3.1,8.25,8.25,0,0,0,3,2,10.23,10.23,0,0,0,3.9.7,10.08,10.08,0,0,0,3.61-.6,7.77,7.77,0,0,0,2.64-1.63,7,7,0,0,0,1.62-2.36,7.15,7.15,0,0,0,.56-2.78,5.18,5.18,0,0,0-.86-3.09,6.87,6.87,0,0,0-2.11-1.91,10.81,10.81,0,0,0-2.69-1.11q-1.44-.37-2.67-.63a29.81,29.81,0,0,1-3.47-.9,12.92,12.92,0,0,1-2.92-1.37,6.32,6.32,0,0,1-2-2,5.2,5.2,0,0,1-.74-2.84,6.18,6.18,0,0,1,.68-2.88,7.45,7.45,0,0,1,1.88-2.28,8.82,8.82,0,0,1,2.82-1.49,11.49,11.49,0,0,1,3.55-.52,10.23,10.23,0,0,1,3,.4,8.22,8.22,0,0,1,2.31,1.09,6.88,6.88,0,0,1,1.65,1.57,8.39,8.39,0,0,1,1.06,1.89.73.73,0,0,0,.33-.5,3.7,3.7,0,0,0,.08-.79v-3.26h.51v11.41h-.51v-1.62a14.72,14.72,0,0,0-.51-4,8.9,8.9,0,0,0-1.52-3.1,6.77,6.77,0,0,0-2.59-2,9,9,0,0,0-3.71-.7,8.89,8.89,0,0,0-3.19.52,6.38,6.38,0,0,0-2.24,1.39,5.83,5.83,0,0,0-1.29,2,6.43,6.43,0,0,0-.43,2.34,4.81,4.81,0,0,0,.78,2.86,6.17,6.17,0,0,0,1.91,1.73,8.78,8.78,0,0,0,2.36,1c.83.2,1.56.37,2.2.5,1.36.3,2.64.65,3.86,1a13.6,13.6,0,0,1,3.23,1.53,7.73,7.73,0,0,1,2.23,2.22,5.57,5.57,0,0,1,.84,3.1,6.72,6.72,0,0,1-.82,3.27,8.58,8.58,0,0,1-2.18,2.6,10.15,10.15,0,0,1-3.22,1.73,12.18,12.18,0,0,1-3.94.63,11,11,0,0,1-3.17-.43,9.93,9.93,0,0,1-2.58-1.13,7.69,7.69,0,0,1-1.93-1.61A5.87,5.87,0,0,1,653,796.4a1.12,1.12,0,0,0-.53.84,7.14,7.14,0,0,0-.13,1.29v2.54Z"/><path class="cls-50" d="M692.05,801.48a13.19,13.19,0,0,1-5.6-1.15,12.05,12.05,0,0,1-4.14-3.11,13.53,13.53,0,0,1-2.56-4.59,18.47,18.47,0,0,1,0-11.33,13.53,13.53,0,0,1,2.56-4.59,12.05,12.05,0,0,1,4.14-3.11,14.23,14.23,0,0,1,11.21,0,12.15,12.15,0,0,1,4.14,3.11,13.53,13.53,0,0,1,2.56,4.59,18.47,18.47,0,0,1,0,11.33,13.53,13.53,0,0,1-2.56,4.59,12.15,12.15,0,0,1-4.14,3.11A13.2,13.2,0,0,1,692.05,801.48Zm0-.41a11,11,0,0,0,5.16-1.1,9.43,9.43,0,0,0,3.42-3,12.76,12.76,0,0,0,1.91-4.49,26.23,26.23,0,0,0,0-11,12.76,12.76,0,0,0-1.91-4.49,9.4,9.4,0,0,0-3.42-3,12.53,12.53,0,0,0-10.31,0,9.4,9.4,0,0,0-3.42,3,12.76,12.76,0,0,0-1.91,4.49,26.23,26.23,0,0,0,0,11,12.76,12.76,0,0,0,1.91,4.49,9.43,9.43,0,0,0,3.42,3A11,11,0,0,0,692.05,801.07Z"/><path class="cls-51" d="M725.86,801.07v-.4h5.08l-5.23-9.51h-.66a12,12,0,0,1-2.21-.2,7.1,7.1,0,0,1-1.9-.65,2.86,2.86,0,0,1-1.3-1.17.87.87,0,0,1,.08-1,1.65,1.65,0,0,1,1.29-.42,5.29,5.29,0,0,1,1.86.42,5.93,5.93,0,0,1,1.65,1c.45.42.9.87,1.34,1.35l.16.2a6.74,6.74,0,0,0,2.89-.92,7.45,7.45,0,0,0,2.13-1.94,8.44,8.44,0,0,0,1.29-2.66,11.26,11.26,0,0,0,.43-3.18,11.43,11.43,0,0,0-.5-3.41,8.19,8.19,0,0,0-1.5-2.78,7,7,0,0,0-2.41-1.87,7.49,7.49,0,0,0-3.3-.69H718.7v27.41h5.08v.4H711.6v-.4h5.08V773.26H711.6v-.4h13.45a9.94,9.94,0,0,1,3.76.72,10.24,10.24,0,0,1,3.09,2,9.54,9.54,0,0,1,2.11,2.9,8.41,8.41,0,0,1,.12,6.85,8.78,8.78,0,0,1-1.8,2.76,9.58,9.58,0,0,1-2.69,2,10.4,10.4,0,0,1-3.27,1l7.26,9.59h5.08v.4Zm-.4-10.31c-.24-.27-.61-.64-1.12-1.11a6.19,6.19,0,0,0-1.78-1.15,4,4,0,0,0-1.44-.37,1.23,1.23,0,0,0-1,.25c-.17.19-.16.44,0,.76a2.5,2.5,0,0,0,1,.85,6.24,6.24,0,0,0,1.83.6,12,12,0,0,0,2,.17Z"/><path class="cls-52" d="M744.38,801.07v-.4h5.08V773.26h-5.08v-.4h12.19v.4h-5.08v27.41h5.08v.4Z"/><path class="cls-53" d="M776.11,801.48a13.2,13.2,0,0,1-5.61-1.15,12,12,0,0,1-4.13-3.11,13.55,13.55,0,0,1-2.57-4.59,18.47,18.47,0,0,1,0-11.33,13.55,13.55,0,0,1,2.57-4.59,12,12,0,0,1,4.13-3.11,14.26,14.26,0,0,1,11.22,0,12.15,12.15,0,0,1,4.14,3.11,13.7,13.7,0,0,1,2.56,4.59,18.47,18.47,0,0,1,0,11.33,13.7,13.7,0,0,1-2.56,4.59,12.15,12.15,0,0,1-4.14,3.11A13.2,13.2,0,0,1,776.11,801.48Zm0-.41a10.92,10.92,0,0,0,5.15-1.1,9.38,9.38,0,0,0,3.43-3,12.75,12.75,0,0,0,1.9-4.49,26.23,26.23,0,0,0,0-11,12.75,12.75,0,0,0-1.9-4.49,9.36,9.36,0,0,0-3.43-3,12.5,12.5,0,0,0-10.3,0,9.44,9.44,0,0,0-3.43,3,12.75,12.75,0,0,0-1.9,4.49,25.79,25.79,0,0,0,0,11,12.75,12.75,0,0,0,1.9,4.49,9.46,9.46,0,0,0,3.43,3A10.92,10.92,0,0,0,776.11,801.07Z"/><path class="cls-54" d="M796.51,801.07v-11.4H797v1.61a11.6,11.6,0,0,0,.66,4,8.89,8.89,0,0,0,1.88,3.1,8.3,8.3,0,0,0,2.94,2,10.32,10.32,0,0,0,3.91.7,10.12,10.12,0,0,0,3.61-.6,7.86,7.86,0,0,0,2.64-1.63,7,7,0,0,0,1.62-2.36,7.15,7.15,0,0,0,.56-2.78,5.18,5.18,0,0,0-.86-3.09,6.87,6.87,0,0,0-2.11-1.91,10.81,10.81,0,0,0-2.69-1.11c-1-.25-1.85-.46-2.67-.63a29.81,29.81,0,0,1-3.47-.9,12.72,12.72,0,0,1-2.92-1.37,6.22,6.22,0,0,1-2-2,5.2,5.2,0,0,1-.74-2.84,6.18,6.18,0,0,1,.68-2.88,7.31,7.31,0,0,1,1.88-2.28,8.82,8.82,0,0,1,2.82-1.49,11.49,11.49,0,0,1,3.55-.52,10.11,10.11,0,0,1,3,.4,8.16,8.16,0,0,1,2.32,1.09,6.88,6.88,0,0,1,1.65,1.57,8.39,8.39,0,0,1,1.06,1.89.73.73,0,0,0,.33-.5,3.7,3.7,0,0,0,.08-.79v-3.26h.51v11.41h-.51v-1.62a14.72,14.72,0,0,0-.51-4,8.9,8.9,0,0,0-1.52-3.1,6.77,6.77,0,0,0-2.59-2,9,9,0,0,0-3.71-.7,8.89,8.89,0,0,0-3.19.52A6.38,6.38,0,0,0,801,775a5.68,5.68,0,0,0-1.29,2,6.43,6.43,0,0,0-.43,2.34,4.81,4.81,0,0,0,.78,2.86A6.17,6.17,0,0,0,802,783.9a8.78,8.78,0,0,0,2.36,1c.82.2,1.56.37,2.2.5,1.36.3,2.64.65,3.86,1a13.79,13.79,0,0,1,3.23,1.53,7.73,7.73,0,0,1,2.23,2.22,5.57,5.57,0,0,1,.84,3.1,6.72,6.72,0,0,1-.82,3.27,8.58,8.58,0,0,1-2.18,2.6,10.15,10.15,0,0,1-3.22,1.73,12.18,12.18,0,0,1-3.94.63,11,11,0,0,1-3.17-.43,10.15,10.15,0,0,1-2.59-1.13,7.82,7.82,0,0,1-1.92-1.61,5.87,5.87,0,0,1-1.15-1.91,1.09,1.09,0,0,0-.53.84,6.34,6.34,0,0,0-.13,1.29v2.54Z"/></svg>