<?xml version="1.0" encoding="utf-8"?>
<!-- Generator: Adobe Illustrator 23.0.5, SVG Export Plug-In . SVG Version: 6.00 Build 0)  -->
<svg version="1.1" xmlns="http://www.w3.org/2000/svg" xmlns:xlink="http://www.w3.org/1999/xlink" x="0px" y="0px"
	 viewBox="0 0 980 798" style="enable-background:new 0 0 980 798;" xml:space="preserve">
<style type="text/css">
	.st0{fill:url(#SVGID_1_);}
	.st1{fill:url(#SVGID_2_);}
	.st2{fill:url(#SVGID_3_);}
	.st3{fill:url(#SVGID_4_);}
	.st4{fill:url(#SVGID_5_);}
	.st5{fill:url(#SVGID_6_);}
	.st6{fill:url(#SVGID_7_);}
	.st7{fill:url(#SVGID_8_);}
	.st8{fill:url(#SVGID_9_);}
	.st9{fill:url(#SVGID_10_);}
	.st10{fill:url(#SVGID_11_);}
	.st11{fill:url(#SVGID_12_);}
	.st12{fill:url(#SVGID_13_);}
	.st13{fill:url(#SVGID_14_);}
	.st14{fill:url(#SVGID_15_);}
	.st15{fill:url(#SVGID_16_);}
	.st16{fill:url(#SVGID_17_);}
	.st17{fill:url(#SVGID_18_);}
	.st18{fill:url(#SVGID_19_);}
	.st19{fill:url(#SVGID_20_);}
	.st20{fill:url(#SVGID_21_);}
	.st21{fill:url(#SVGID_22_);}
	.st22{fill:url(#SVGID_23_);}
</style>
<g id="Capa_1">
	<title>logo-joyeria</title>
	
		<linearGradient id="SVGID_1_" gradientUnits="userSpaceOnUse" x1="393.63" y1="267.95" x2="606.37" y2="267.95" gradientTransform="matrix(1 0 0 -1 -10 785)">
		<stop  offset="0" style="stop-color:#EDDBAC"/>
		<stop  offset="0.52" style="stop-color:#E0BC5D"/>
		<stop  offset="1" style="stop-color:#BC9558"/>
	</linearGradient>
	<path class="st0" d="M490,682.7c-58.6,0-106.4-74.3-106.4-165.7S431.4,351.4,490,351.4S596.4,425.7,596.4,517
		S548.7,682.7,490,682.7z M490,362.4c-54.8,0-99.3,69.4-99.3,154.7s44.5,154.7,99.3,154.7s99.3-69.4,99.3-154.7
		S544.8,362.4,490,362.4z"/>
	
		<linearGradient id="SVGID_2_" gradientUnits="userSpaceOnUse" x1="-44.215" y1="697.835" x2="709.065" y2="-55.445" gradientTransform="matrix(-1 0 0 -1 530.35 785)">
		<stop  offset="0" style="stop-color:#EDDBAC"/>
		<stop  offset="0.52" style="stop-color:#E0BC5D"/>
		<stop  offset="1" style="stop-color:#BC9558"/>
	</linearGradient>
	<path class="st1" d="M191.3,119c26.3,11.6,100.1,59.6,114.7,186.1c9.2,80.1,43.1,122,66.7,142c-0.8,15-1.5,30.1-1.9,45.3
		c-33.3-32.3-51.1-72.9-51.1-72.9c10.7,51.3,34,86.2,50.4,105.5c-0.3,38,1.1,75.9,6,112.2c-56.5-112.9-79.8-267.3-92-355.1
		C267.6,163.1,191.3,119,191.3,119z"/>
	
		<linearGradient id="SVGID_3_" gradientUnits="userSpaceOnUse" x1="302.0895" y1="767.1595" x2="553.0895" y2="516.1495" gradientTransform="matrix(-1 0 0 -1 530.35 785)">
		<stop  offset="0" style="stop-color:#EDDBAC"/>
		<stop  offset="0.52" style="stop-color:#E0BC5D"/>
		<stop  offset="1" style="stop-color:#BC9558"/>
	</linearGradient>
	<path class="st2" d="M177.4,132.1c42.5,19,75.2,84.8,78.5,91.6c-2.1-4-16.2-27.3-74.2-45.7C25.4,128.3,0,12.6,0,12.6
		C24.4,57.3,111.6,102.7,177.4,132.1z"/>
	
		<linearGradient id="SVGID_4_" gradientUnits="userSpaceOnUse" x1="-214.8106" y1="1050.0594" x2="1025.2501" y2="-190.011" gradientTransform="matrix(-1 0 0 -1 530.35 785)">
		<stop  offset="0" style="stop-color:#EDDBAC"/>
		<stop  offset="0.52" style="stop-color:#E0BC5D"/>
		<stop  offset="1" style="stop-color:#BC9558"/>
	</linearGradient>
	<path class="st3" d="M255.9,223.8c0.2,0.4,0.3,0.6,0.3,0.6L255.9,223.8z"/>
	
		<linearGradient id="SVGID_5_" gradientUnits="userSpaceOnUse" x1="257.7547" y1="722.1447" x2="553.0346" y2="426.8647" gradientTransform="matrix(-1 0 0 -1 530.35 785)">
		<stop  offset="0" style="stop-color:#EDDBAC"/>
		<stop  offset="0.52" style="stop-color:#E0BC5D"/>
		<stop  offset="1" style="stop-color:#BC9558"/>
	</linearGradient>
	<path class="st4" d="M10.3,108.6c67.5,77.3,193.7,93.5,242.2,125.5c15.1,10,21.8,44,21.8,44s-18.8-16.5-80-19.8
		C48.6,250.5,5.9,103.6,10.3,108.6z"/>
	
		<linearGradient id="SVGID_6_" gradientUnits="userSpaceOnUse" x1="210.1799" y1="677.6299" x2="551.4999" y2="336.2999" gradientTransform="matrix(-1 0 0 -1 530.35 785)">
		<stop  offset="0" style="stop-color:#EDDBAC"/>
		<stop  offset="0.52" style="stop-color:#E0BC5D"/>
		<stop  offset="1" style="stop-color:#BC9558"/>
	</linearGradient>
	<path class="st5" d="M254.6,294.9c22.3,8.7,27.3,42.9,27.3,42.9c-16.2-20.4-43.4-2-80,10.3C72.4,391.7,28.4,207,28.4,207
		C157.4,350.1,211.5,278.2,254.6,294.9z"/>
	
		<linearGradient id="SVGID_7_" gradientUnits="userSpaceOnUse" x1="160.39" y1="598.13" x2="503.99" y2="254.53" gradientTransform="matrix(-1 0 0 -1 530.35 785)">
		<stop  offset="0" style="stop-color:#EDDBAC"/>
		<stop  offset="0.52" style="stop-color:#E0BC5D"/>
		<stop  offset="1" style="stop-color:#BC9558"/>
	</linearGradient>
	<path class="st6" d="M234.3,373.5c46.4-22.6,60.5,45.7,60.5,45.7c-24.2-16.5-62.2-0.9-86.7,7.3c-103.7,35-147.4-87.6-147.4-87.6
		C98.9,396.1,166.4,406.6,234.3,373.5z"/>
	
		<linearGradient id="SVGID_8_" gradientUnits="userSpaceOnUse" x1="95.9465" y1="505.7065" x2="443.0665" y2="158.5865" gradientTransform="matrix(-1 0 0 -1 530.35 785)">
		<stop  offset="0" style="stop-color:#EDDBAC"/>
		<stop  offset="0.52" style="stop-color:#E0BC5D"/>
		<stop  offset="1" style="stop-color:#BC9558"/>
	</linearGradient>
	<path class="st7" d="M274,446.6c27.5,4.3,39.5,54.1,38.1,52.6c-4.3-5-18.5-25.3-60.7-13.9c-72.9,19.7-92.6-28.2-92.6-28.2
		C198.1,479.1,236.8,440.7,274,446.6z"/>
	
		<linearGradient id="SVGID_9_" gradientUnits="userSpaceOnUse" x1="61.505" y1="437.415" x2="403.015" y2="95.905" gradientTransform="matrix(-1 0 0 -1 530.35 785)">
		<stop  offset="0" style="stop-color:#EDDBAC"/>
		<stop  offset="0.52" style="stop-color:#E0BC5D"/>
		<stop  offset="1" style="stop-color:#BC9558"/>
	</linearGradient>
	<path class="st8" d="M273,511.9c44-6.7,63.6,72.2,63.6,72.2c-18.8-31.2-37.1-18.5-68.5-21.7c-49.7-5.1-66.9-51.3-66.9-51.3
		C215.1,517,235.2,517.6,273,511.9z"/>
	
		<linearGradient id="SVGID_10_" gradientUnits="userSpaceOnUse" x1="-475.205" y1="710.405" x2="278.075" y2="-42.8751" gradientTransform="matrix(1 0 0 -1 880.65 785)">
		<stop  offset="0" style="stop-color:#EDDBAC"/>
		<stop  offset="0.52" style="stop-color:#E0BC5D"/>
		<stop  offset="1" style="stop-color:#BC9558"/>
	</linearGradient>
	<path class="st9" d="M788.7,106.4c-26.3,11.6-100.1,59.6-114.7,186.1c-9.2,80.1-43.1,122-66.7,142c0.8,15,1.5,30.1,1.9,45.3
		c33.3-32.3,51.1-72.9,51.1-72.9c-10.7,51.3-34,86.2-50.4,105.5c0.3,38-1.1,75.9-6,112.2c56.5-112.9,79.8-267.2,92-355.1
		C712.4,150.6,788.7,106.4,788.7,106.4z"/>
	
		<linearGradient id="SVGID_11_" gradientUnits="userSpaceOnUse" x1="-128.908" y1="779.722" x2="122.092" y2="528.712" gradientTransform="matrix(1 0 0 -1 880.65 785)">
		<stop  offset="0" style="stop-color:#EDDBAC"/>
		<stop  offset="0.52" style="stop-color:#E0BC5D"/>
		<stop  offset="1" style="stop-color:#BC9558"/>
	</linearGradient>
	<path class="st10" d="M802.6,119.5c-42.5,19-75.2,84.8-78.5,91.6c2.1-4,16.2-27.3,74.2-45.7C954.6,115.7,980,0,980,0
		C955.6,44.8,868.4,90.2,802.6,119.5z"/>
	
		<linearGradient id="SVGID_12_" gradientUnits="userSpaceOnUse" x1="-645.81" y1="1062.62" x2="633.58" y2="-216.77" gradientTransform="matrix(1 0 0 -1 880.65 785)">
		<stop  offset="0" style="stop-color:#EDDBAC"/>
		<stop  offset="0.52" style="stop-color:#E0BC5D"/>
		<stop  offset="1" style="stop-color:#BC9558"/>
	</linearGradient>
	<path class="st11" d="M724.1,211.2c-0.2,0.4-0.3,0.6-0.3,0.6L724.1,211.2z"/>
	
		<linearGradient id="SVGID_13_" gradientUnits="userSpaceOnUse" x1="-173.2359" y1="734.7141" x2="122.0441" y2="439.4341" gradientTransform="matrix(1 0 0 -1 880.65 785)">
		<stop  offset="0" style="stop-color:#EDDBAC"/>
		<stop  offset="0.52" style="stop-color:#E0BC5D"/>
		<stop  offset="1" style="stop-color:#BC9558"/>
	</linearGradient>
	<path class="st12" d="M969.7,96c-67.5,77.3-193.7,93.6-242.2,125.6c-15.1,9.9-21.8,44-21.8,44s18.8-16.5,80-19.8
		C931.4,238,974.1,91.1,969.7,96z"/>
	
		<linearGradient id="SVGID_14_" gradientUnits="userSpaceOnUse" x1="-220.8325" y1="690.1875" x2="120.4975" y2="348.8575" gradientTransform="matrix(1 0 0 -1 880.65 785)">
		<stop  offset="0" style="stop-color:#EDDBAC"/>
		<stop  offset="0.52" style="stop-color:#E0BC5D"/>
		<stop  offset="1" style="stop-color:#BC9558"/>
	</linearGradient>
	<path class="st13" d="M725.4,282.4c-22.3,8.7-27.3,42.9-27.3,42.9c16.2-20.4,43.4-2,80,10.3c129.5,43.5,173.5-141.1,173.5-141.1
		C822.6,337.5,768.5,265.6,725.4,282.4z"/>
	
		<linearGradient id="SVGID_15_" gradientUnits="userSpaceOnUse" x1="-270.6078" y1="610.6922" x2="72.9922" y2="267.1022" gradientTransform="matrix(1 0 0 -1 880.65 785)">
		<stop  offset="0" style="stop-color:#EDDBAC"/>
		<stop  offset="0.52" style="stop-color:#E0BC5D"/>
		<stop  offset="1" style="stop-color:#BC9558"/>
	</linearGradient>
	<path class="st14" d="M745.7,360.9c-46.4-22.6-60.5,45.7-60.5,45.7c24.2-16.5,62.2-0.9,86.7,7.3c103.7,35,147.3-87.6,147.3-87.6
		C881.1,383.5,813.6,394,745.7,360.9z"/>
	
		<linearGradient id="SVGID_16_" gradientUnits="userSpaceOnUse" x1="-335.0416" y1="518.2784" x2="12.0784" y2="171.1685" gradientTransform="matrix(1 0 0 -1 880.65 785)">
		<stop  offset="0" style="stop-color:#EDDBAC"/>
		<stop  offset="0.52" style="stop-color:#E0BC5D"/>
		<stop  offset="1" style="stop-color:#BC9558"/>
	</linearGradient>
	<path class="st15" d="M706,434c-27.5,4.3-39.5,54.1-38.2,52.6c4.3-5,18.5-25.3,60.7-13.9c72.9,19.7,92.7-28.2,92.7-28.2
		C781.9,466.5,743.2,428.2,706,434z"/>
	
		<linearGradient id="SVGID_17_" gradientUnits="userSpaceOnUse" x1="-369.495" y1="449.975" x2="-27.985" y2="108.465" gradientTransform="matrix(1 0 0 -1 880.65 785)">
		<stop  offset="0" style="stop-color:#EDDBAC"/>
		<stop  offset="0.52" style="stop-color:#E0BC5D"/>
		<stop  offset="1" style="stop-color:#BC9558"/>
	</linearGradient>
	<path class="st16" d="M707,499.3c-44-6.7-63.6,72.2-63.6,72.2c18.8-31.2,37.1-18.5,68.5-21.7c49.7-5.1,66.9-51.3,66.9-51.3
		C764.8,504.5,744.8,505,707,499.3z"/>
	
		<linearGradient id="SVGID_18_" gradientUnits="userSpaceOnUse" x1="450.13" y1="118.7613" x2="549.4" y2="118.7613" gradientTransform="matrix(1 0 0 -1 -10 785)">
		<stop  offset="0" style="stop-color:#EDDBAC"/>
		<stop  offset="0.52" style="stop-color:#E0BC5D"/>
		<stop  offset="1" style="stop-color:#BC9558"/>
	</linearGradient>
	<path class="st17" d="M474.1,798c3.4-39.5,6.7-78.7,10.1-118.3l-44,5v-27.5l40.3,6.4c-0.8-1.3-1.3-2-1.7-2.9
		c-1.3-2.4-2.6-4.8-3.8-7.4c-2-4.4-4-9-6-13.5c-3.3-7.6-6-15.5-8-23.5c-2.3-8.8-3.1-17.8-2.4-26.9c0.3-4.7,0.8-9.4,1.6-14
		c1.4-8.1,3.9-15.9,7.6-23.2c3.7-7,8.2-12.6,13.9-15.5c6.4-3.3,12.7-2.9,18.9,1.5c4.7,3.3,8.5,8.3,11.7,14.7
		c3.4,7.2,5.9,14.7,7.3,22.5c1.6,8.3,2.2,16.8,1.9,25.3c-0.1,6.3-1.6,12-3.1,17.6c-1.5,5.4-3.2,10.8-5.2,16
		c-2.3,5.9-4.8,11.5-7.4,17c-1.6,3.5-3.5,6.7-5.3,10c-0.3,0.6-0.5,1.2-0.9,2l39.8-6.3v27.6l-41.7-4.8c2.7,39.4,5.3,78.7,8,118.1
		L474.1,798z M489.8,651.3c1.7-2.8,3.3-5.3,4.7-8c3.3-6.8,6.6-13.6,9.5-20.8c2.3-5.7,4.1-11.5,5.4-17.4c2-9.4,1.4-19-0.8-28.4
		c-1.8-7.8-4.4-14.6-8.7-19.6c-4-4.7-8.5-6.6-13.5-4.8c-6,2.2-10,8.3-13,16.3c-0.7,1.7-1.2,3.4-1.7,5.1c-2.1,8.2-2.8,16.8-2.2,25.3
		c0.8,8.2,2.9,16.3,6.3,23.8c2.6,5.9,5.2,11.8,8,17.5C485.6,643.9,487.7,647.4,489.8,651.3z"/>
</g>
<g id="Capa_2">
	<linearGradient id="SVGID_19_" gradientUnits="userSpaceOnUse" x1="391.2401" y1="559.3843" x2="566.8936" y2="383.7308">
		<stop  offset="0" style="stop-color:#EDDBAC"/>
		<stop  offset="0.52" style="stop-color:#E0BC5D"/>
		<stop  offset="1" style="stop-color:#BC9558"/>
	</linearGradient>
	<rect x="486.4" y="414" class="st18" width="6.8" height="93.6"/>
	
		<linearGradient id="SVGID_20_" gradientUnits="userSpaceOnUse" x1="486.6464" y1="524.8228" x2="613.0994" y2="398.3698" gradientTransform="matrix(6.123234e-17 1 -1 6.123234e-17 982.3191 -37.1308)">
		<stop  offset="0" style="stop-color:#EDDBAC"/>
		<stop  offset="0.52" style="stop-color:#E0BC5D"/>
		<stop  offset="1" style="stop-color:#BC9558"/>
	</linearGradient>
	<polygon class="st19" points="495.7,523.8 495.7,517 561.2,517 561.2,523.8 	"/>
	
		<linearGradient id="SVGID_21_" gradientUnits="userSpaceOnUse" x1="173.3525" y1="131.8386" x2="222.5955" y2="82.5956" gradientTransform="matrix(0.8803 0.9344 -0.9181 0.865 408.7886 102.8444)">
		<stop  offset="0" style="stop-color:#EDDBAC"/>
		<stop  offset="0.52" style="stop-color:#E0BC5D"/>
		<stop  offset="1" style="stop-color:#BC9558"/>
	</linearGradient>
	<polygon class="st20" points="494.6,376.5 502.7,381.3 494.4,385.4 489.8,393.4 485.5,385.1 477.4,380.3 485.6,376.1 490.3,368.1 	
		"/>
	
		<linearGradient id="SVGID_22_" gradientUnits="userSpaceOnUse" x1="214.9356" y1="252.3155" x2="264.1786" y2="203.0725" gradientTransform="matrix(0.8803 0.9344 -0.9181 0.865 408.7886 102.8444)">
		<stop  offset="0" style="stop-color:#EDDBAC"/>
		<stop  offset="0.52" style="stop-color:#E0BC5D"/>
		<stop  offset="1" style="stop-color:#BC9558"/>
	</linearGradient>
	<polygon class="st21" points="420.6,519.5 428.7,524.3 420.4,528.5 415.8,536.5 411.5,528.1 403.4,523.3 411.6,519.2 416.3,511.2 	
		"/>
	
		<linearGradient id="SVGID_23_" gradientUnits="userSpaceOnUse" x1="297.876" y1="158.794" x2="347.119" y2="109.551" gradientTransform="matrix(0.8803 0.9344 -0.9181 0.865 408.7886 102.8444)">
		<stop  offset="0" style="stop-color:#EDDBAC"/>
		<stop  offset="0.52" style="stop-color:#E0BC5D"/>
		<stop  offset="1" style="stop-color:#BC9558"/>
	</linearGradient>
	<polygon class="st22" points="579.5,516.1 587.6,520.9 579.3,525.1 574.6,533.1 570.3,524.7 562.2,520 570.5,515.8 575.2,507.8 	
		"/>
</g>
</svg>
