<svg id="Capa_1" data-name="Capa 1" xmlns="http://www.w3.org/2000/svg" xmlns:xlink="http://www.w3.org/1999/xlink" viewBox="0 0 980 798"><defs><style>.cls-1{fill:url(#Degradado_sin_nombre_26);}.cls-2{fill:url(#New_Gradient_Swatch_1);}.cls-3{fill:url(#New_Gradient_Swatch_1-2);}.cls-4{fill:url(#New_Gradient_Swatch_1-3);}.cls-5{fill:url(#New_Gradient_Swatch_1-4);}.cls-6{fill:url(#New_Gradient_Swatch_1-5);}.cls-7{fill:url(#New_Gradient_Swatch_1-6);}.cls-8{fill:url(#New_Gradient_Swatch_1-7);}.cls-9{fill:url(#New_Gradient_Swatch_1-8);}.cls-10{fill:url(#New_Gradient_Swatch_1-9);}.cls-11{fill:url(#New_Gradient_Swatch_1-10);}.cls-12{fill:url(#New_Gradient_Swatch_1-11);}.cls-13{fill:url(#New_Gradient_Swatch_1-12);}.cls-14{fill:url(#New_Gradient_Swatch_1-13);}.cls-15{fill:url(#New_Gradient_Swatch_1-14);}.cls-16{fill:url(#New_Gradient_Swatch_1-15);}.cls-17{fill:url(#New_Gradient_Swatch_1-16);}.cls-18{fill:url(#Degradado_sin_nombre_25);}.cls-19{fill:url(#New_Gradient_Swatch_1-17);}.cls-20{fill:url(#New_Gradient_Swatch_1-18);}.cls-21{fill:url(#New_Gradient_Swatch_1-19);}.cls-22{fill:url(#New_Gradient_Swatch_1-20);}.cls-23{fill:url(#New_Gradient_Swatch_1-21);}.cls-24{fill:url(#New_Gradient_Swatch_1-22);}.cls-25{fill:url(#New_Gradient_Swatch_1-23);}.cls-26{fill:url(#Degradado_sin_nombre_25-2);}.cls-27{fill:url(#Degradado_sin_nombre_25-3);}.cls-28{fill:url(#Degradado_sin_nombre_25-4);}.cls-29{fill:url(#Degradado_sin_nombre_25-5);}.cls-30{fill:url(#Degradado_sin_nombre_25-6);}.cls-31{fill:url(#Degradado_sin_nombre_25-7);}.cls-32{fill:url(#Degradado_sin_nombre_25-8);}.cls-33{fill:url(#Degradado_sin_nombre_25-9);}.cls-34{fill:url(#Degradado_sin_nombre_25-10);}.cls-35{fill:url(#Degradado_sin_nombre_25-11);}.cls-36{fill:url(#Degradado_sin_nombre_25-12);}.cls-37{fill:url(#Degradado_sin_nombre_25-13);}.cls-38{fill:url(#Degradado_sin_nombre_25-14);}.cls-39{fill:url(#Degradado_sin_nombre_25-15);}.cls-40{fill:url(#Degradado_sin_nombre_25-16);}.cls-41{fill:url(#Degradado_sin_nombre_25-17);}.cls-42{fill:url(#Degradado_sin_nombre_25-18);}.cls-43{fill:url(#Degradado_sin_nombre_25-19);}.cls-44{fill:url(#Degradado_sin_nombre_25-20);}.cls-45{fill:url(#Degradado_sin_nombre_25-21);}.cls-46{fill:url(#Degradado_sin_nombre_25-22);}.cls-47{fill:url(#Degradado_sin_nombre_25-23);}.cls-48{fill:url(#Degradado_sin_nombre_25-24);}.cls-49{fill:url(#Degradado_sin_nombre_25-25);}.cls-50{fill:url(#Degradado_sin_nombre_25-26);}.cls-51{fill:url(#Degradado_sin_nombre_25-27);}.cls-52{fill:url(#Degradado_sin_nombre_25-28);}</style><linearGradient id="Degradado_sin_nombre_26" x1="385.72" y1="329.19" x2="592.33" y2="329.19" gradientUnits="userSpaceOnUse"><stop offset="0.09" stop-color="#f7e68a"/><stop offset="0.16" stop-color="#e8ba65"/><stop offset="0.32" stop-color="#f8e889"/><stop offset="0.72" stop-color="#e6b964"/></linearGradient><linearGradient id="New_Gradient_Swatch_1" x1="85.35" y1="700.65" x2="475.77" y2="310.24" gradientTransform="translate(530.35 785) rotate(180)" gradientUnits="userSpaceOnUse"><stop offset="0" stop-color="#281809"/><stop offset="0" stop-color="#2e1b0b"/><stop offset="0" stop-color="#492b13"/><stop offset="0" stop-color="#5f3719"/><stop offset="0" stop-color="#70411e"/><stop offset="0.01" stop-color="#7b4821"/><stop offset="0.01" stop-color="#824c23"/><stop offset="0.02" stop-color="#844d24"/><stop offset="0.04" stop-color="#f7e68a"/><stop offset="0.07" stop-color="#8e5b22"/><stop offset="0.09" stop-color="#9a682b"/><stop offset="0.12" stop-color="#ba8a43"/><stop offset="0.16" stop-color="#e8ba65"/><stop offset="0.32" stop-color="#f8e889"/><stop offset="0.72" stop-color="#e6b964"/><stop offset="1" stop-color="#603913"/></linearGradient><linearGradient id="New_Gradient_Swatch_1-2" x1="265.83" y1="836.88" x2="577.4" y2="525.3" xlink:href="#New_Gradient_Swatch_1"/><linearGradient id="New_Gradient_Swatch_1-3" x1="115.43" y1="795.45" x2="503.58" y2="407.29" xlink:href="#New_Gradient_Swatch_1"/><linearGradient id="New_Gradient_Swatch_1-4" x1="233.36" y1="807.72" x2="555.23" y2="485.85" xlink:href="#New_Gradient_Swatch_1"/><linearGradient id="New_Gradient_Swatch_1-5" x1="201.58" y1="776.53" x2="530.85" y2="447.25" xlink:href="#New_Gradient_Swatch_1"/><linearGradient id="New_Gradient_Swatch_1-6" x1="158.96" y1="729.25" x2="488.66" y2="399.56" xlink:href="#New_Gradient_Swatch_1"/><linearGradient id="New_Gradient_Swatch_1-7" x1="101.27" y1="667.75" x2="432.11" y2="336.91" xlink:href="#New_Gradient_Swatch_1"/><linearGradient id="New_Gradient_Swatch_1-8" x1="66.51" y1="625.93" x2="394.75" y2="297.69" xlink:href="#New_Gradient_Swatch_1"/><linearGradient id="New_Gradient_Swatch_1-9" x1="-347.59" y1="708.66" x2="42.82" y2="318.24" gradientTransform="matrix(1, 0, 0, -1, 880.65, 785)" xlink:href="#New_Gradient_Swatch_1"/><linearGradient id="New_Gradient_Swatch_1-10" x1="-167.11" y1="844.87" x2="144.44" y2="533.31" gradientTransform="matrix(1, 0, 0, -1, 880.65, 785)" xlink:href="#New_Gradient_Swatch_1"/><linearGradient id="New_Gradient_Swatch_1-11" x1="-322.46" y1="808.39" x2="90.93" y2="395" gradientTransform="matrix(1, 0, 0, -1, 880.65, 785)" xlink:href="#New_Gradient_Swatch_1"/><linearGradient id="New_Gradient_Swatch_1-12" x1="-199.58" y1="815.72" x2="122.27" y2="493.87" gradientTransform="matrix(1, 0, 0, -1, 880.65, 785)" xlink:href="#New_Gradient_Swatch_1"/><linearGradient id="New_Gradient_Swatch_1-13" x1="-231.38" y1="784.52" x2="97.9" y2="455.24" gradientTransform="matrix(1, 0, 0, -1, 880.65, 785)" xlink:href="#New_Gradient_Swatch_1"/><linearGradient id="New_Gradient_Swatch_1-14" x1="-273.99" y1="737.25" x2="55.71" y2="407.56" gradientTransform="matrix(1, 0, 0, -1, 880.65, 785)" xlink:href="#New_Gradient_Swatch_1"/><linearGradient id="New_Gradient_Swatch_1-15" x1="-331.66" y1="675.74" x2="-0.83" y2="344.92" gradientTransform="matrix(1, 0, 0, -1, 880.65, 785)" xlink:href="#New_Gradient_Swatch_1"/><linearGradient id="New_Gradient_Swatch_1-16" x1="-366.44" y1="633.93" x2="-38.2" y2="305.69" gradientTransform="matrix(1, 0, 0, -1, 880.65, 785)" xlink:href="#New_Gradient_Swatch_1"/><linearGradient id="Degradado_sin_nombre_25" x1="450.59" y1="360.82" x2="547" y2="360.82" gradientTransform="matrix(1, 0, 0, -1, -10, 785)" gradientUnits="userSpaceOnUse"><stop offset="0.07" stop-color="#f7e68a"/><stop offset="0.16" stop-color="#e8ba65"/><stop offset="0.32" stop-color="#f8e889"/><stop offset="0.72" stop-color="#e6b964"/></linearGradient><linearGradient id="New_Gradient_Swatch_1-17" x1="423.84" y1="358.37" x2="539.65" y2="242.57" gradientTransform="matrix(1, 0, 0, 1, 0, 0)" xlink:href="#New_Gradient_Swatch_1"/><linearGradient id="New_Gradient_Swatch_1-18" x1="301.83" y1="522.63" x2="420.67" y2="403.8" gradientTransform="translate(157.86 -124.62)" xlink:href="#New_Gradient_Swatch_1"/><linearGradient id="New_Gradient_Swatch_1-19" x1="95.2" y1="56.39" x2="143.01" y2="8.58" gradientTransform="matrix(0.88, 0.93, -0.92, 0.86, 408.79, 102.84)" xlink:href="#New_Gradient_Swatch_1"/><linearGradient id="New_Gradient_Swatch_1-20" x1="279.03" y1="232.94" x2="326.84" y2="185.13" gradientTransform="matrix(0.88, 0.93, -0.92, 0.86, 408.79, 102.84)" xlink:href="#New_Gradient_Swatch_1"/><linearGradient id="New_Gradient_Swatch_1-21" x1="317.87" y1="269.98" x2="365.68" y2="222.17" gradientTransform="matrix(0.88, 0.93, -0.92, 0.86, 408.79, 102.84)" xlink:href="#New_Gradient_Swatch_1"/><linearGradient id="New_Gradient_Swatch_1-22" x1="108.45" y1="147.37" x2="156.26" y2="99.56" gradientTransform="matrix(0.88, 0.93, -0.92, 0.86, 408.79, 102.84)" xlink:href="#New_Gradient_Swatch_1"/><linearGradient id="New_Gradient_Swatch_1-23" x1="189.64" y1="57.17" x2="237.45" y2="9.36" gradientTransform="matrix(0.88, 0.93, -0.92, 0.86, 408.79, 102.84)" xlink:href="#New_Gradient_Swatch_1"/><linearGradient id="Degradado_sin_nombre_25-2" x1="0" y1="728.66" x2="980" y2="728.66" gradientTransform="matrix(1, 0, 0, 1, 0, 0)" xlink:href="#Degradado_sin_nombre_25"/><linearGradient id="Degradado_sin_nombre_25-3" x1="115.12" y1="566.91" x2="189.3" y2="566.91" gradientTransform="matrix(1, 0, 0, 1, 0, 0)" xlink:href="#Degradado_sin_nombre_25"/><linearGradient id="Degradado_sin_nombre_25-4" x1="198.02" y1="566.91" x2="230.22" y2="566.91" gradientTransform="matrix(1, 0, 0, 1, 0, 0)" xlink:href="#Degradado_sin_nombre_25"/><linearGradient id="Degradado_sin_nombre_25-5" x1="242.96" y1="566.91" x2="321.56" y2="566.91" gradientTransform="matrix(1, 0, 0, 1, 0, 0)" xlink:href="#Degradado_sin_nombre_25"/><linearGradient id="Degradado_sin_nombre_25-6" x1="399.53" y1="566.91" x2="458.69" y2="566.91" gradientTransform="matrix(1, 0, 0, 1, 0, 0)" xlink:href="#Degradado_sin_nombre_25"/><linearGradient id="Degradado_sin_nombre_25-7" x1="319.08" y1="566.91" x2="395.54" y2="566.91" gradientTransform="matrix(1, 0, 0, 1, 0, 0)" xlink:href="#Degradado_sin_nombre_25"/><linearGradient id="Degradado_sin_nombre_25-8" x1="513.66" y1="566.91" x2="578.85" y2="566.91" gradientTransform="matrix(1, 0, 0, 1, 0, 0)" xlink:href="#Degradado_sin_nombre_25"/><linearGradient id="Degradado_sin_nombre_25-9" x1="588.91" y1="566.91" x2="647.13" y2="566.91" gradientTransform="matrix(1, 0, 0, 1, 0, 0)" xlink:href="#Degradado_sin_nombre_25"/><linearGradient id="Degradado_sin_nombre_25-10" x1="660.94" y1="566.91" x2="730.69" y2="566.91" gradientTransform="matrix(1, 0, 0, 1, 0, 0)" xlink:href="#Degradado_sin_nombre_25"/><linearGradient id="Degradado_sin_nombre_25-11" x1="745.45" y1="566.91" x2="810.64" y2="566.91" gradientTransform="matrix(1, 0, 0, 1, 0, 0)" xlink:href="#Degradado_sin_nombre_25"/><linearGradient id="Degradado_sin_nombre_25-12" x1="820.7" y1="566.91" x2="893.8" y2="566.91" gradientTransform="matrix(1, 0, 0, 1, 0, 0)" xlink:href="#Degradado_sin_nombre_25"/><linearGradient id="Degradado_sin_nombre_25-13" x1="215.89" y1="631.93" x2="243.58" y2="631.93" gradientTransform="matrix(1, 0, 0, 1, 0, 0)" xlink:href="#Degradado_sin_nombre_25"/><linearGradient id="Degradado_sin_nombre_25-14" x1="250.01" y1="631.93" x2="272.3" y2="631.93" gradientTransform="matrix(1, 0, 0, 1, 0, 0)" xlink:href="#Degradado_sin_nombre_25"/><linearGradient id="Degradado_sin_nombre_25-15" x1="279.14" y1="631.93" x2="301.65" y2="631.93" gradientTransform="matrix(1, 0, 0, 1, 0, 0)" xlink:href="#Degradado_sin_nombre_25"/><linearGradient id="Degradado_sin_nombre_25-16" x1="309.16" y1="631.93" x2="336.13" y2="631.93" gradientTransform="matrix(1, 0, 0, 1, 0, 0)" xlink:href="#Degradado_sin_nombre_25"/><linearGradient id="Degradado_sin_nombre_25-17" x1="340.12" y1="634.2" x2="354.38" y2="634.2" gradientTransform="matrix(1, 0, 0, 1, 0, 0)" xlink:href="#Degradado_sin_nombre_25"/><linearGradient id="Degradado_sin_nombre_25-18" x1="360.7" y1="631.93" x2="383" y2="631.93" gradientTransform="matrix(1, 0, 0, 1, 0, 0)" xlink:href="#Degradado_sin_nombre_25"/><linearGradient id="Degradado_sin_nombre_25-19" x1="389.84" y1="631.93" x2="417.53" y2="631.93" gradientTransform="matrix(1, 0, 0, 1, 0, 0)" xlink:href="#Degradado_sin_nombre_25"/><linearGradient id="Degradado_sin_nombre_25-20" x1="423.96" y1="631.93" x2="436.4" y2="631.93" gradientTransform="matrix(1, 0, 0, 1, 0, 0)" xlink:href="#Degradado_sin_nombre_25"/><linearGradient id="Degradado_sin_nombre_25-21" x1="442.41" y1="631.7" x2="475.96" y2="631.7" gradientTransform="matrix(1, 0, 0, 1, 0, 0)" xlink:href="#Degradado_sin_nombre_25"/><linearGradient id="Degradado_sin_nombre_25-22" x1="510.09" y1="634.15" x2="524.35" y2="634.15" gradientTransform="matrix(1, 0, 0, 1, 0, 0)" xlink:href="#Degradado_sin_nombre_25"/><linearGradient id="Degradado_sin_nombre_25-23" x1="531.45" y1="631.88" x2="558.42" y2="631.88" gradientTransform="matrix(1, 0, 0, 1, 0, 0)" xlink:href="#Degradado_sin_nombre_25"/><linearGradient id="Degradado_sin_nombre_25-24" x1="561.32" y1="631.88" x2="593" y2="631.88" gradientTransform="matrix(1, 0, 0, 1, 0, 0)" xlink:href="#Degradado_sin_nombre_25"/><linearGradient id="Degradado_sin_nombre_25-25" x1="597.77" y1="631.88" x2="620.06" y2="631.88" gradientTransform="matrix(1, 0, 0, 1, 0, 0)" xlink:href="#Degradado_sin_nombre_25"/><linearGradient id="Degradado_sin_nombre_25-26" x1="626.91" y1="631.88" x2="654.59" y2="631.88" gradientTransform="matrix(1, 0, 0, 1, 0, 0)" xlink:href="#Degradado_sin_nombre_25"/><linearGradient id="Degradado_sin_nombre_25-27" x1="661.02" y1="631.88" x2="673.47" y2="631.88" gradientTransform="matrix(1, 0, 0, 1, 0, 0)" xlink:href="#Degradado_sin_nombre_25"/><linearGradient id="Degradado_sin_nombre_25-28" x1="679.48" y1="631.66" x2="713.03" y2="631.66" gradientTransform="matrix(1, 0, 0, 1, 0, 0)" xlink:href="#Degradado_sin_nombre_25"/></defs><title>logoFinal</title><path class="cls-1" d="M489,434.68c-56.95,0-103.3-47.32-103.3-105.49S432.07,223.71,489,223.71,592.33,271,592.33,329.19,546,434.68,489,434.68Zm0-204c-53.18,0-96.44,44.18-96.44,98.48s43.26,98.49,96.44,98.49,96.45-44.18,96.45-98.49S542.21,230.71,489,230.71Z"/><path class="cls-2" d="M198.91,75.76c25.56,7.42,97.2,37.94,111.35,118.48,9,51,41.85,77.67,64.79,90.41-.75,9.55-1.42,19.16-1.89,28.84-32.37-20.54-49.59-46.42-49.59-46.42,10.43,32.65,33,54.86,48.93,67.17-.33,24.19,1.06,48.32,5.88,71.4-54.84-71.89-77.53-170.16-89.35-226.1C273.05,103.87,198.91,75.76,198.91,75.76Z"/><path class="cls-3" d="M185.48,84.11c41.31,12.09,73,54,76.2,58.35-2-2.55-15.71-17.35-72.06-29.11C37.86,81.68,13.15,8,13.15,8,36.84,36.5,121.51,65.39,185.48,84.11Z"/><path class="cls-4" d="M261.68,142.46c.2.25.29.38.29.38Z"/><path class="cls-5" d="M23.12,69.14c65.54,49.2,188.15,59.54,235.2,79.94,14.63,6.36,21.15,28,21.15,28s-18.21-10.49-77.7-12.59C60.33,159.49,18.91,66,23.12,69.14Z"/><path class="cls-6" d="M260.4,187.78c21.65,5.51,26.51,27.31,26.51,27.31-15.73-13-42.12-1.27-77.7,6.56-125.75,27.71-168.5-89.86-168.5-89.86C166,222.89,218.58,177.12,260.4,187.78Z"/><path class="cls-7" d="M240.7,237.78c45-14.41,58.75,29.11,58.75,29.11-23.48-10.47-60.43-.58-84.22,4.68-100.73,22.28-143.1-55.78-143.1-55.78C109.23,252.18,174.79,258.87,240.7,237.78Z"/><path class="cls-8" d="M279.25,284.33c26.75,2.75,38.34,34.45,37.05,33.49-4.2-3.19-17.94-16.12-58.91-8.85-70.81,12.57-90-17.93-90-17.93C205.58,305,243.15,280.61,279.25,284.33Z"/><path class="cls-9" d="M278.28,325.89c42.68-4.25,61.79,45.95,61.79,45.95C321.79,352,304,360.05,273.57,358c-48.28-3.25-65-32.67-65-32.67C222.1,329.19,241.59,329.54,278.28,325.89Z"/><path class="cls-10" d="M779.14,67.76c-25.56,7.41-97.2,37.93-111.35,118.47-9,51-41.85,77.67-64.79,90.41.75,9.55,1.42,19.16,1.88,28.83,32.38-20.53,49.6-46.42,49.6-46.42-10.43,32.65-33,54.86-48.94,67.17.34,24.19-1,48.32-5.87,71.4C654.51,325.74,677.2,227.48,689,171.55,705,95.88,779.14,67.76,779.14,67.76Z"/><path class="cls-11" d="M792.57,76.1c-41.31,12.1-73,54-76.2,58.35,2-2.54,15.71-17.35,72-29.1C940.19,73.68,964.9,0,964.9,0,941.21,28.5,856.54,57.4,792.57,76.1Z"/><path class="cls-12" d="M716.37,134.45c-.2.26-.29.4-.29.4Z"/><path class="cls-13" d="M954.93,61.12c-65.54,49.22-188.15,59.56-235.21,80-14.62,6.34-21.14,28-21.14,28s18.21-10.49,77.7-12.59C917.72,151.53,959.14,58,954.93,61.12Z"/><path class="cls-14" d="M717.65,179.77c-21.65,5.52-26.51,27.33-26.51,27.33,15.73-13,42.12-1.28,77.7,6.55,125.75,27.71,168.5-89.84,168.5-89.84C812.07,214.89,759.46,169.12,717.65,179.77Z"/><path class="cls-15" d="M737.35,229.78c-45-14.41-58.75,29.11-58.75,29.11,23.48-10.48,60.43-.58,84.22,4.68,100.72,22.28,143.1-55.78,143.1-55.78C868.82,244.18,803.25,250.85,737.35,229.78Z"/><path class="cls-16" d="M698.8,276.32c-26.75,2.75-38.34,34.45-37,33.48,4.2-3.18,17.94-16.11,58.91-8.84,70.8,12.57,90-17.93,90-17.93C772.47,297,734.89,272.61,698.8,276.32Z"/><path class="cls-17" d="M699.77,317.89C657,313.64,638,363.84,638,363.84c18.28-19.88,36.07-11.79,66.5-13.83,48.28-3.24,65-32.67,65-32.67C756,321.2,736.46,321.52,699.77,317.89Z"/><path class="cls-18" d="M473.54,508.07c3.27-25.13,6.51-50.13,9.78-75.34l-42.73,3.18V418.39l39.14,4.05c-.73-.81-1.23-1.28-1.67-1.85-1.24-1.55-2.52-3.08-3.66-4.7-2-2.82-3.89-5.73-5.83-8.58a81.87,81.87,0,0,1-7.82-14.95,34.68,34.68,0,0,1-2.28-17.1,51.72,51.72,0,0,1,1.54-8.92,41.6,41.6,0,0,1,7.38-14.77,29.46,29.46,0,0,1,13.49-9.9,24,24,0,0,1,18.35.94,30.32,30.32,0,0,1,11.37,9.33,45.41,45.41,0,0,1,7.14,14.36,47.77,47.77,0,0,1,1.85,16.11c-.12,4-1.56,7.64-3,11.22a84.11,84.11,0,0,1-5,10.18c-2.2,3.75-4.71,7.3-7.22,10.83-1.57,2.22-3.4,4.26-5.1,6.36-.28.36-.51.77-.86,1.28l38.64-4v17.55l-40.48-3c2.6,25.1,5.17,50.08,7.77,75.16Zm15.32-93.38c1.62-1.82,3.24-3.35,4.53-5.13,3.18-4.35,6.4-8.68,9.21-13.27a53,53,0,0,0,5.28-11.1c1.95-6,1.35-12.1-.75-18.08-1.76-5-4.29-9.28-8.47-12.48a15,15,0,0,0-13.11-3.06c-5.83,1.38-9.71,5.29-12.63,10.37a25.06,25.06,0,0,0-1.68,3.25,33.39,33.39,0,0,0-2.13,16.08,35.06,35.06,0,0,0,6.15,15.14Q479,402.1,483,407.57C484.8,410,486.8,412.2,488.86,414.69Z"/><rect class="cls-19" x="485.5" y="263.61" width="6.59" height="59.62"/><rect class="cls-20" x="524.18" y="299.54" width="4.32" height="63.62" transform="translate(857.7 -194.99) rotate(90)"/><polygon class="cls-21" points="493.49 239.69 501.35 242.74 493.31 245.39 488.8 250.49 484.62 245.17 476.76 242.12 484.8 239.47 489.31 234.37 493.49 239.69"/><polygon class="cls-22" points="493.23 564.17 501.09 567.22 493.05 569.87 488.54 574.97 484.36 569.65 476.5 566.6 484.54 563.95 489.05 558.85 493.23 564.17"/><polygon class="cls-23" points="493.42 632.5 501.27 635.55 493.23 638.2 488.72 643.3 484.54 637.98 476.68 634.93 484.72 632.28 489.24 627.18 493.42 632.5"/><polygon class="cls-24" points="421.63 330.77 429.48 333.83 421.44 336.48 416.93 341.58 412.75 336.26 404.89 333.2 412.93 330.55 417.45 325.45 421.63 330.77"/><polygon class="cls-25" points="575.92 328.61 583.77 331.67 575.74 334.31 571.22 339.42 567.04 334.1 559.19 331.04 567.23 328.39 571.74 323.29 575.92 328.61"/><path class="cls-26" d="M956.48,659.31c-4.23,0-7.77,1.81-8.58,4.2H32.1c-.81-2.39-4.35-4.2-8.58-4.2-4.84,0-23.52,5.25-23.52,5.25s18.68,5.25,23.52,5.25c3.29,0,6.15-1.09,7.65-2.7h77.34a7.12,7.12,0,0,0-3.75,4.51c-1.14,5,2.71,9.48,10.31,11.58,18.38,5.08,43.59-.7,59.79-6,16.65-5.47,32.07-7.71,50.8-4.82a142.87,142.87,0,0,1,15.77,3.59c-9.93-.29-19.58,1.2-28.19,5.54-23.92,12-12.31,35.27,18.8,36.86,12.7.65,26.15-3.3,33-9.7,6-5.63,4.3-14.06-4.74-18.07-13.68-6.07-42.19,3.1-26.37,12.65a19.42,19.42,0,0,0,7,2.25c1.87.29,3.07-.92,2.21-1.81a1.05,1.05,0,0,0,.15-1c-1-2.94,2.21-5.26,6.34-6.56,4.37-1.38,7.75-.52,11.82.2,4.4,4.93-1.48,11.83-8.28,14.85-8.9,4-21.57,4.81-31.59,2.06-27.34-7.49-15.42-30.59,10.31-34,12.17-1.58,25.5,1.4,36.65,4a136.19,136.19,0,0,1,18.2,5.67l2.09.81c10.73,8,35,9.33,49.75,8.51a123.72,123.72,0,0,0,24.17-3.81,77,77,0,0,1-21.3,5.57c-7,.75-25.11.14-22.74,7.3,2.18,6.61,20.38,6.5,27.83,4.45,2.22-.61,4.37-1.3,6.48-2-1.48,1.14-2.93,2.29-4.31,3.47-5.63,4.81-13.88,13.33-5.15,18.5,9.44,5.59,17.15-.85,22.7-9.71a16.11,16.11,0,0,0,10.42,10.3,12.28,12.28,0,0,0,10.6-1.93c3.39-2.49,2.35-6.09,1.1-8.93-1.79-4.05-5.63-7.67-7.73-11.66a13.23,13.23,0,0,1-1.21-3.3,22,22,0,0,0,4.38,4.77c8.24,6.79,23,9.79,36.58,8.87a61,61,0,0,0,14.88-2.9c4.06-.44,8.08-1,12.24-1.19a57.16,57.16,0,0,1,18.78,2.71c11.62,3.66,17.1,11.67,14.73,19.22-2.79,8.93-17.7,10.28-28.18,5.11-5.21-2.57-7-6.57-2.52-9.79a13.28,13.28,0,0,1,1.9.14,6.88,6.88,0,0,1,2.62,1.11c1.61,1.07,1.18,2.13,1.07,3.4a.88.88,0,0,0,.06.27c-.27.78.28,1.64,1.91,1.85,16.39,2.07,12.55-16.75-5.12-12.05-20.71,5.51-8.23,19.87,9.76,21.43,20.85,1.81,26.43-13.62,20.73-22.65-3.19-5-10.65-9.22-19-11.07a63.91,63.91,0,0,0-23.91-.53c5.38-2.57,9.37-6,10.27-10.21,2.1-9.7-8.72-19.06-24.54-21.3-12.53-1.78-27.43,3.28-29.15,11.13-2,9.27,17.31,10.53,27.47,8.12,1.13-.26,1.72-.81,1.88-1.39a2.55,2.55,0,0,0,1.52-2.14c0-2-3.61-3.3-6.49-3.68-3.31-.44-6.88.23-10.12.59a18.82,18.82,0,0,1-5.25-.1c-3.6-.63-3.68-3.34-2.7-5.24,2.92-2.4,8.05-4.26,12-5,20.53-3.89,37.64,11.84,29,22.32-7.85,9.52-31.14,10.52-45.14,6.23-17.77-5.44-20-18.63-11.84-28.49,7-8.45,22.16-13.28,37.4-14.09,17.59-.94,32.69,4.79,45.62,11.26,11,5.5,20.92,12.26,27.42,20-3.39,4.17-5.74,8.62-6.3,13.26-.79,6.62,2.7,12.38,6.56,18.14a97.37,97.37,0,0,0-7,11.45c-3.81,8-1.3,17,5.22,24.73l-9.52,5.7L500.38,798l13.8-21.52-9.35-5.61c6.58-7.77,9.13-16.77,5.3-24.82a98.63,98.63,0,0,0-7-11.45c3.86-5.76,7.34-11.52,6.55-18.14-.55-4.64-2.9-9.09-6.3-13.26,6.51-7.73,16.43-14.49,27.42-20,12.94-6.47,28-12.2,45.62-11.26,15.24.81,30.38,5.64,37.4,14.09,8.18,9.86,5.93,23.05-11.84,28.49-14,4.29-37.28,3.29-45.14-6.23-8.65-10.48,8.46-26.21,29-22.32,4,.75,9.1,2.61,12,5,1,1.9.9,4.61-2.69,5.24a18.89,18.89,0,0,1-5.26.1c-3.24-.36-6.8-1-10.12-.59-2.87.38-6.49,1.65-6.49,3.68a2.55,2.55,0,0,0,1.53,2.14c.16.58.74,1.13,1.88,1.39,10.16,2.41,29.49,1.15,27.47-8.12C602.43,687,587.52,681.92,575,683.7c-15.83,2.24-26.65,11.6-24.55,21.3.9,4.18,4.89,7.64,10.27,10.21a63.86,63.86,0,0,0-23.9.53c-8.39,1.85-15.85,6-19,11.07-5.71,9-.13,24.46,20.72,22.65,18-1.56,30.47-15.92,9.77-21.43-17.68-4.7-21.52,14.12-5.13,12.05,1.64-.21,2.18-1.07,1.92-1.85a.86.86,0,0,0,0-.27c-.11-1.27-.54-2.33,1.08-3.4a6.83,6.83,0,0,1,2.61-1.11,13.53,13.53,0,0,1,1.91-.14c4.5,3.22,2.68,7.22-2.52,9.79-10.49,5.17-25.4,3.82-28.19-5.11-2.36-7.55,3.11-15.56,14.73-19.22a57.16,57.16,0,0,1,18.78-2.71c4.16.16,8.18.75,12.25,1.19a60.84,60.84,0,0,0,14.87,2.9c13.58.92,28.34-2.08,36.59-8.87a22.22,22.22,0,0,0,4.37-4.77,12.85,12.85,0,0,1-1.21,3.3c-2.09,4-5.93,7.61-7.72,11.66-1.26,2.84-2.3,6.44,1.09,8.93,2.48,1.82,6.74,3.22,10.6,1.93A16.15,16.15,0,0,0,634.79,722c5.55,8.86,13.25,15.3,22.7,9.71,8.72-5.17.47-13.69-5.16-18.5-1.38-1.18-2.83-2.33-4.31-3.47,2.11.74,4.27,1.43,6.48,2,7.45,2.05,25.66,2.16,27.84-4.45,2.36-7.16-15.7-6.55-22.75-7.3a77,77,0,0,1-21.29-5.57,123.62,123.62,0,0,0,24.16,3.81c14.77.82,39-.52,49.75-8.51l2.09-.81a137.11,137.11,0,0,1,18.2-5.67c11.16-2.64,24.49-5.62,36.65-4,25.73,3.37,37.65,26.47,10.32,34-10,2.75-22.7,1.91-31.6-2.06-6.79-3-12.68-9.92-8.28-14.85,4.07-.72,7.46-1.58,11.83-.2,4.12,1.3,7.34,3.62,6.34,6.56a1.05,1.05,0,0,0,.14,1c-.85.89.34,2.1,2.22,1.81a19.43,19.43,0,0,0,7-2.25c15.82-9.55-12.69-18.72-26.37-12.65-9,4-10.73,12.44-4.73,18.07,6.82,6.4,20.26,10.35,33,9.7,31.11-1.59,42.72-24.81,18.81-36.86-8.62-4.34-18.27-5.83-28.2-5.54a143.91,143.91,0,0,1,15.77-3.59c18.74-2.89,34.15-.65,50.8,4.82,16.21,5.33,41.41,11.11,59.8,6,7.59-2.1,11.44-6.59,10.31-11.58a7.14,7.14,0,0,0-3.76-4.51h56.33c1.49,1.61,4.36,2.7,7.65,2.7,4.83,0,23.52-5.25,23.52-5.25S961.31,659.31,956.48,659.31ZM284,683.71a11.31,11.31,0,0,0,1,2,191.25,191.25,0,0,0-21.35-6.6c-7.57-2.49-16.12-4.3-24-6.26a138.56,138.56,0,0,0-31.82-4.51c-22-.33-38.5,9-59.06,11.84-8.7,1.22-23.37,2.59-31.89-.33l0-.06a.5.5,0,0,0,0-.36,4.6,4.6,0,0,0-.23-.78,2.11,2.11,0,0,1-.14-1.33,2.54,2.54,0,0,1,.64-1.1,1.26,1.26,0,0,1,.36-.3c.11-.08.79-.44.55-.34a5.29,5.29,0,0,1,1.34-.41l.21,0h.69l0,0c.14.09.33.27,0,0l.18.14s0,0,0,.09a7.59,7.59,0,0,0,.33.78,2.69,2.69,0,0,0,2.37,1.08,4.07,4.07,0,0,0,.62-.06,5.13,5.13,0,0,0,1.38-.18c10.4-2.88,6.91-7.47.1-9.93H290.32C284.16,671.21,282.53,679.53,284,683.71Zm68.15,22.49c-6.18,2.25-12.54,4.32-20,3.64a26,26,0,0,1-7.29-2c6.75,1.88,19.23-.76,24.63-2a82.61,82.61,0,0,0,12.06-3.78A77.41,77.41,0,0,1,352.13,706.2Zm13.51,7.51c-.84,2-1.69,4.07-2.63,6a26.84,26.84,0,0,1-5.6,7.67,10.21,10.21,0,0,1-4,2.29,14,14,0,0,0,.95-2.43,42.71,42.71,0,0,1,6.9-10.76c1.67-2,3.4-4,5.09-6A31.32,31.32,0,0,0,365.64,713.71Zm17,6.39c.84,1.26,2.33,5.59,1.28,8.09-.89-2.48-4.11-4.8-6-7-3.17-3.73-2.48-8.41-2.73-12.69a26.92,26.92,0,0,0,1.53,3.35C378.3,714.7,380.84,717.34,382.66,720.1Zm123,28.14c2.46,7.3,0,14-5.09,20.08l-.19-.11h0c-5-6.09-7.45-12.72-5-20a43.65,43.65,0,0,1,5.16-9.76A43.2,43.2,0,0,1,505.66,748.24Zm-2.43-36.36c2.95,6.65.77,12.68-2.72,18.61-3.5-5.93-5.68-12-2.73-18.61a34.81,34.81,0,0,1,2.73-4.88A33.75,33.75,0,0,1,503.23,711.88Zm119.82,9.32c-1.87,2.19-5.09,4.51-6,7-1-2.5.45-6.83,1.28-8.09,1.83-2.76,4.36-5.4,5.89-8.24a25.54,25.54,0,0,0,1.53-3.35C625.52,712.79,626.21,717.47,623.05,721.2Zm28.53-15.36c5.39,1.21,17.87,3.85,24.63,2a26.1,26.1,0,0,1-7.29,2c-7.5.68-13.85-1.39-20-3.64a77.41,77.41,0,0,1-9.37-4.14A82.35,82.35,0,0,0,651.58,705.84Zm-11.83,10.69a42.66,42.66,0,0,1,6.89,10.76,14,14,0,0,0,1,2.43,10.18,10.18,0,0,1-4-2.29,26.8,26.8,0,0,1-5.59-7.67c-1-2-1.8-4-2.64-6a31.28,31.28,0,0,0-.71-3.19C636.34,712.5,638.07,714.49,639.75,716.53Zm57-23.81c-19.08,5.56-47.1,4.4-66.95-2.71a34.49,34.49,0,0,0-3.59-1.45c-2.71-1.53-5.29-3.12-7.73-4.69-12.94-13.8-42.67-18.33-66.77-12.4-14.77,3.63-28.67,11-38.88,18.19A87.26,87.26,0,0,0,500.51,700a87.36,87.36,0,0,0-12.35-10.32c-10.21-7.21-24.11-14.56-38.88-18.19-24.1-5.93-53.82-1.4-66.76,12.4-2.45,1.57-5,3.16-7.73,4.69A33.62,33.62,0,0,0,371.2,690c-19.86,7.11-47.88,8.27-67,2.71-13.22-3.84-17.71-11-13.4-19a10.84,10.84,0,0,1,2.93-3.46c2.45.49,5.74.17,6.86,2.06a3,3,0,0,1-2.55,4.61c-2.28.16-3.09,1.45-2.38,2.36,0,.85.95,1.74,2.78,1.87,6.75.47,16.15-1.84,16.35-6.64.13-2.92-2.24-5.57-5.87-7.38H692.05c-3.62,1.81-6,4.46-5.87,7.38.2,4.8,9.6,7.11,16.35,6.64,1.83-.13,2.78-1,2.78-1.87.71-.91-.1-2.2-2.38-2.36a3.05,3.05,0,0,1-2.55-4.61c1.12-1.89,4.42-1.57,6.86-2.06a10.88,10.88,0,0,1,2.94,3.46C714.48,681.76,710,688.88,696.77,692.72ZM875.67,677a5.24,5.24,0,0,0,1.38.18,4.2,4.2,0,0,0,.61.06A2.7,2.7,0,0,0,880,676.2a7.59,7.59,0,0,0,.33-.78c.06-.11,0-.1,0-.09s.06,0,.18-.14c-.28.25-.08.07.05,0l0,0h.68l.22,0a5.37,5.37,0,0,1,1.33.41c-.23-.1.45.26.55.34a1.26,1.26,0,0,1,.36.3,2.56,2.56,0,0,1,.65,1.1,2.12,2.12,0,0,1-.15,1.33,5.69,5.69,0,0,0-.22.78.45.45,0,0,0,0,.36.12.12,0,0,1,0,.06c-8.51,2.92-23.18,1.55-31.88.33-20.56-2.88-37.11-12.17-59.07-11.84a138.64,138.64,0,0,0-31.82,4.51c-7.83,2-16.38,3.77-23.94,6.26a191.42,191.42,0,0,0-21.36,6.6,10.66,10.66,0,0,0,1-2c1.46-4.18-.18-12.5-6.33-16.6H875.58C868.76,669.57,865.27,674.16,875.67,677Z"/><path class="cls-27" d="M174.55,595.05l-44.67-54.67v53.86h13.41v.81H115.12v-.81h13.42V539.58H115.12v-.8h19.45l40,49V539.58H161.14v-.8H189.3v.8H175.89v55.47Z"/><path class="cls-28" d="M198,595.05v-.81h13.42V539.58H198v-.8h32.2v.8H216.8v54.66h13.42v.81Z"/><path class="cls-29" d="M306.81,595.05l-4-8.2a25.55,25.55,0,0,1-10,6.59,41.43,41.43,0,0,1-15,2.41A44.45,44.45,0,0,1,263,593.56a32.79,32.79,0,0,1-10.93-6.19,26.33,26.33,0,0,1-6.77-9.17,28.3,28.3,0,0,1,0-22.58,26.42,26.42,0,0,1,6.77-9.17A32.79,32.79,0,0,1,263,540.26,44.45,44.45,0,0,1,277.84,538q9.78,0,16.49,3.06a23.83,23.83,0,0,1,10.2,8.2,3.24,3.24,0,0,0,1.68-1.45,4.6,4.6,0,0,0,.6-2.33v-6.67h1.34v22.74h-1.34a21.76,21.76,0,0,0-1.88-9,19.87,19.87,0,0,0-5.57-7.23,27,27,0,0,0-9.05-4.79,40.85,40.85,0,0,0-12.47-1.72A36.87,36.87,0,0,0,264.22,541a23.89,23.89,0,0,0-9.05,6,22.6,22.6,0,0,0-5,9,39.31,39.31,0,0,0,0,21.86,22.7,22.7,0,0,0,5,9,24.12,24.12,0,0,0,9.05,6,37.07,37.07,0,0,0,13.62,2.21,37.89,37.89,0,0,0,15.22-2.74,23.58,23.58,0,0,0,9.72-7.39V567.31H289.37v-.8h32.19v.8H308.15v27.74Z"/><path class="cls-30" d="M413,595.05v-.81h13.41l.13-54.66H413c-1.35,0-2.74.07-4.18.2a7.47,7.47,0,0,0-3.91,1.53,9.54,9.54,0,0,0-2.89,4.14,21.94,21.94,0,0,0-1.15,8v8h-1.35V538.78h59.16v22.74h-1.35v-8a21.94,21.94,0,0,0-1.15-8,9.54,9.54,0,0,0-2.89-4.14,7.47,7.47,0,0,0-3.91-1.53c-1.44-.13-2.84-.2-4.18-.2H431.73v54.66h13.41v.81Z"/><path class="cls-31" d="M363.34,595.05v-.81h13.42V567.31h-38.9v26.93h13.41v.81H319.08v-.81h13.41V539.58H319.08v-.8h32.19v.8H337.86v26.93h38.9V539.58H363.34v-.8h32.2v.8H382.12v54.66h13.42v.81Z"/><path class="cls-32" d="M578.85,572.3a22.38,22.38,0,0,1-2,9.36,20.4,20.4,0,0,1-5.76,7.44,28.32,28.32,0,0,1-9.53,4.94,43.12,43.12,0,0,1-13.08,1.81,44.43,44.43,0,0,1-14.82-2.29,32.79,32.79,0,0,1-10.93-6.19A26.48,26.48,0,0,1,516,578.2a28.41,28.41,0,0,1,0-22.58,26.57,26.57,0,0,1,6.78-9.17,32.79,32.79,0,0,1,10.93-6.19A44.43,44.43,0,0,1,548.53,538q9.79,0,16.5,3.06a23.6,23.6,0,0,1,10.2,8.28,4.83,4.83,0,0,0,1.61-1.13,2.44,2.44,0,0,0,.67-1.69v-7.71h1.34v22.74h-1.34a21.76,21.76,0,0,0-1.88-9,19.87,19.87,0,0,0-5.57-7.23,27.14,27.14,0,0,0-9-4.79,40.87,40.87,0,0,0-12.48-1.72A36.85,36.85,0,0,0,534.92,541a23.89,23.89,0,0,0-9,6,22.74,22.74,0,0,0-5,9,39.56,39.56,0,0,0,0,21.86,22.85,22.85,0,0,0,5,9,24.12,24.12,0,0,0,9,6,37.05,37.05,0,0,0,13.61,2.21A40.86,40.86,0,0,0,561,593.32a27.14,27.14,0,0,0,9-4.79,19.79,19.79,0,0,0,5.57-7.23,21.76,21.76,0,0,0,1.88-9Z"/><path class="cls-33" d="M589.45,595.05v-.81h13.41V539.58h-14v-.8h32.73v.8H608.22v54.66h25.49c1.34,0,2.73-.07,4.16-.2a7.41,7.41,0,0,0,3.89-1.53,9.52,9.52,0,0,0,2.88-4.14,22.19,22.19,0,0,0,1.14-8v-8h1.35v22.75Z"/><path class="cls-34" d="M695.81,595.85A44.43,44.43,0,0,1,681,593.56a32.79,32.79,0,0,1-10.93-6.19,26.33,26.33,0,0,1-6.77-9.17,28.3,28.3,0,0,1,0-22.58,26.42,26.42,0,0,1,6.77-9.17A32.79,32.79,0,0,1,681,540.26a49.13,49.13,0,0,1,29.65,0,32.89,32.89,0,0,1,10.93,6.19,26.42,26.42,0,0,1,6.77,9.17,28.3,28.3,0,0,1,0,22.58,26.33,26.33,0,0,1-6.77,9.17,32.89,32.89,0,0,1-10.93,6.19A44.45,44.45,0,0,1,695.81,595.85Zm0-.8a37.07,37.07,0,0,0,13.62-2.21,24.12,24.12,0,0,0,9.05-6,22.7,22.7,0,0,0,5-9,39.31,39.31,0,0,0,0-21.86,22.6,22.6,0,0,0-5-9,23.89,23.89,0,0,0-9.05-6,43,43,0,0,0-27.23,0,24,24,0,0,0-9.06,6,22.7,22.7,0,0,0-5,9,39.31,39.31,0,0,0,0,21.86,22.81,22.81,0,0,0,5,9,24.25,24.25,0,0,0,9.06,6A37.05,37.05,0,0,0,695.81,595.05Z"/><path class="cls-35" d="M810.64,572.3a22.38,22.38,0,0,1-1.95,9.36,20.4,20.4,0,0,1-5.76,7.44A28.32,28.32,0,0,1,793.4,594a43.12,43.12,0,0,1-13.08,1.81,44.43,44.43,0,0,1-14.82-2.29,32.79,32.79,0,0,1-10.93-6.19,26.48,26.48,0,0,1-6.78-9.17,28.41,28.41,0,0,1,0-22.58,26.57,26.57,0,0,1,6.78-9.17,32.79,32.79,0,0,1,10.93-6.19A44.43,44.43,0,0,1,780.32,538q9.79,0,16.5,3.06a23.6,23.6,0,0,1,10.2,8.28,4.83,4.83,0,0,0,1.61-1.13,2.44,2.44,0,0,0,.67-1.69v-7.71h1.34v22.74H809.3a21.76,21.76,0,0,0-1.88-9,20,20,0,0,0-5.57-7.23,27.14,27.14,0,0,0-9.05-4.79,40.87,40.87,0,0,0-12.48-1.72A36.85,36.85,0,0,0,766.71,541a23.93,23.93,0,0,0-9.06,6,22.84,22.84,0,0,0-5,9,39.56,39.56,0,0,0,0,21.86,23,23,0,0,0,5,9,24.16,24.16,0,0,0,9.06,6,37.05,37.05,0,0,0,13.61,2.21,40.86,40.86,0,0,0,12.48-1.73,27.14,27.14,0,0,0,9.05-4.79,19.89,19.89,0,0,0,5.57-7.23,21.76,21.76,0,0,0,1.88-9Z"/><path class="cls-36" d="M874.36,539.58H860.94v-.8h28.57v.8H876.1l-20.66,21.3,24.95,33.36H893.8v.81h-33v-.81h13.41L852,564.5l-12.47,12.86v16.88h13.41v.81H820.7v-.81h13.41V539.58H820.7v-.8h32.19v.8H839.48v36.09Z"/><path class="cls-37" d="M230.46,647.83v-.46h5.18l-5.34-10.72h-.67a10.25,10.25,0,0,1-2.26-.23,6.93,6.93,0,0,1-1.94-.72,3.17,3.17,0,0,1-1.32-1.32,1.05,1.05,0,0,1,.08-1.14,1.54,1.54,0,0,1,1.32-.47,4.77,4.77,0,0,1,1.89.47,5.89,5.89,0,0,1,1.69,1.16c.46.47.92,1,1.37,1.52l.16.23a6.56,6.56,0,0,0,2.95-1,7.94,7.94,0,0,0,2.18-2.18,9.71,9.71,0,0,0,1.32-3,14.3,14.3,0,0,0,.44-3.59,13.65,13.65,0,0,0-.52-3.84,9.24,9.24,0,0,0-1.53-3.13,7.36,7.36,0,0,0-2.46-2.12,7.13,7.13,0,0,0-3.37-.77h-6.48v30.89h5.18v.46H215.89v-.46h5.19V616.48h-5.19V616h13.74a9.32,9.32,0,0,1,3.84.81,10.23,10.23,0,0,1,3.16,2.21,10.38,10.38,0,0,1,2.15,3.27,10.39,10.39,0,0,1,.13,7.72,10.53,10.53,0,0,1-1.84,3.11,10,10,0,0,1-2.75,2.25,9.85,9.85,0,0,1-3.34,1.16l7.41,10.81h5.19v.46Zm-.41-11.63c-.25-.3-.63-.72-1.15-1.25a6.43,6.43,0,0,0-1.81-1.3,3.82,3.82,0,0,0-1.48-.41,1.17,1.17,0,0,0-1,.28c-.17.21-.15.5.05.86a2.69,2.69,0,0,0,1,1,5.79,5.79,0,0,0,1.87.69,11.39,11.39,0,0,0,2.07.18Z"/><path class="cls-38" d="M250,647.83v-.46h5.18V616.48H250V616H272.3v12.85h-.52v-4.54a17.65,17.65,0,0,0-.44-4.54,5.8,5.8,0,0,0-1.11-2.34,2.43,2.43,0,0,0-1.51-.86,11.19,11.19,0,0,0-1.6-.12h-9.86V631.7h9.86v.45h-9.86v15.22h9.86a12.79,12.79,0,0,0,1.6-.11,2.47,2.47,0,0,0,1.51-.86,5.8,5.8,0,0,0,1.11-2.34,17.74,17.74,0,0,0,.44-4.55V635h.52v12.86Z"/><path class="cls-39" d="M279.35,647.83v-.46h5.19V616.48h-5.4V616H291.8v.45h-5.19v30.89h9.85a12.81,12.81,0,0,0,1.61-.11,2.48,2.48,0,0,0,1.5-.86,5.93,5.93,0,0,0,1.12-2.34,18.2,18.2,0,0,0,.44-4.55V635h.52v12.86Z"/><path class="cls-40" d="M322.65,648.28a12.34,12.34,0,0,1-5.73-1.29,12.61,12.61,0,0,1-4.23-3.5,16.09,16.09,0,0,1-2.62-5.18,22.86,22.86,0,0,1,0-12.77,15.94,15.94,0,0,1,2.62-5.17,12.49,12.49,0,0,1,4.23-3.5,13.26,13.26,0,0,1,11.45,0,12.49,12.49,0,0,1,4.23,3.5,15.94,15.94,0,0,1,2.62,5.17,22.86,22.86,0,0,1,0,12.77,16.09,16.09,0,0,1-2.62,5.18,12.61,12.61,0,0,1-4.23,3.5A12.32,12.32,0,0,1,322.65,648.28Zm0-.45a10.37,10.37,0,0,0,5.26-1.25,10.1,10.1,0,0,0,3.5-3.41,15.31,15.31,0,0,0,1.94-5.07,32.08,32.08,0,0,0,0-12.35,15.31,15.31,0,0,0-1.94-5.07,10.07,10.07,0,0,0-3.5-3.4,11.71,11.71,0,0,0-10.53,0,10.07,10.07,0,0,0-3.5,3.4,15.31,15.31,0,0,0-1.94,5.07,32.08,32.08,0,0,0,0,12.35,15.31,15.31,0,0,0,1.94,5.07,10.1,10.1,0,0,0,3.5,3.41A10.38,10.38,0,0,0,322.65,647.83Z"/><path class="cls-41" d="M340.12,651.92a7.35,7.35,0,0,0,3.37-.69,5.6,5.6,0,0,0,2.15-1.84,7.28,7.28,0,0,0,1.14-2.74,15.85,15.85,0,0,0,.34-3.37v-26.8h-5.19V616h12.45v.45h-5.19v26.8a10,10,0,0,1-.62,3.52,8.33,8.33,0,0,1-1.79,2.89,8.5,8.5,0,0,1-2.85,1.95,9.42,9.42,0,0,1-3.81.73Z"/><path class="cls-42" d="M360.7,647.83v-.46h5.19V616.48H360.7V616H383v12.85h-.52v-4.54a18.11,18.11,0,0,0-.44-4.54,5.93,5.93,0,0,0-1.12-2.34,2.43,2.43,0,0,0-1.5-.86,11.22,11.22,0,0,0-1.61-.12H368V631.7h9.85v.45H368v15.22h9.85a12.81,12.81,0,0,0,1.61-.11,2.48,2.48,0,0,0,1.5-.86,5.93,5.93,0,0,0,1.12-2.34,18.2,18.2,0,0,0,.44-4.55V635H383v12.86Z"/><path class="cls-43" d="M404.41,647.83v-.46h5.18l-5.34-10.72h-.67a10.09,10.09,0,0,1-2.25-.23,6.88,6.88,0,0,1-1.95-.72,3.17,3.17,0,0,1-1.32-1.32,1.05,1.05,0,0,1,.08-1.14,1.54,1.54,0,0,1,1.32-.47,4.77,4.77,0,0,1,1.89.47A5.89,5.89,0,0,1,403,634.4c.46.47.92,1,1.37,1.52l.16.23a6.56,6.56,0,0,0,2.95-1,7.94,7.94,0,0,0,2.18-2.18,9.71,9.71,0,0,0,1.32-3,14.3,14.3,0,0,0,.44-3.59,13.65,13.65,0,0,0-.52-3.84,9.24,9.24,0,0,0-1.53-3.13,7.36,7.36,0,0,0-2.46-2.12,7.13,7.13,0,0,0-3.37-.77H397.1v30.89h5.18v.46H389.84v-.46H395V616.48h-5.19V616h13.74a9.32,9.32,0,0,1,3.84.81,10.23,10.23,0,0,1,3.16,2.21,10.38,10.38,0,0,1,2.15,3.27,10.52,10.52,0,0,1,.13,7.72,10.53,10.53,0,0,1-1.84,3.11,10,10,0,0,1-2.75,2.25,9.85,9.85,0,0,1-3.34,1.16l7.41,10.81h5.19v.46ZM404,636.2c-.24-.3-.62-.72-1.14-1.25a6.43,6.43,0,0,0-1.81-1.3,3.82,3.82,0,0,0-1.48-.41,1.17,1.17,0,0,0-1,.28c-.17.21-.15.5.05.86a2.69,2.69,0,0,0,1,1,5.79,5.79,0,0,0,1.87.69,11.39,11.39,0,0,0,2.07.18Z"/><path class="cls-44" d="M424,647.83v-.46h5.18V616.48H424V616H436.4v.45h-5.18v30.89h5.18v.46Z"/><path class="cls-45" d="M463.41,647.83v-.46h5.19l-3-8.45H451.18l-3,8.45h5.18v.46H442.41v-.46h5.19l11.3-31.8h.57l11.31,31.8H476v.46Zm-5-29.26-7.05,19.9h14.1Z"/><path class="cls-46" d="M510.09,651.87a7.49,7.49,0,0,0,3.37-.68,5.71,5.71,0,0,0,2.16-1.84,7.67,7.67,0,0,0,1.14-2.75,16.51,16.51,0,0,0,.33-3.36v-26.8h-5.18V616h12.44v.46h-5.18v26.8a10,10,0,0,1-.62,3.52,8.5,8.5,0,0,1-1.79,2.88,8.61,8.61,0,0,1-2.86,2,9.59,9.59,0,0,1-3.81.73Z"/><path class="cls-47" d="M544.93,648.24a12.33,12.33,0,0,1-5.72-1.3,12.49,12.49,0,0,1-4.23-3.5,15.89,15.89,0,0,1-2.62-5.18,22.82,22.82,0,0,1,0-12.76,16.09,16.09,0,0,1,2.62-5.18,12.61,12.61,0,0,1,4.23-3.5,13.35,13.35,0,0,1,11.45,0,12.61,12.61,0,0,1,4.23,3.5,16.09,16.09,0,0,1,2.62,5.18,22.82,22.82,0,0,1,0,12.76,15.89,15.89,0,0,1-2.62,5.18,12.49,12.49,0,0,1-4.23,3.5A12.34,12.34,0,0,1,544.93,648.24Zm0-.46a10.28,10.28,0,0,0,5.27-1.25,10.07,10.07,0,0,0,3.5-3.4,15.31,15.31,0,0,0,1.94-5.07,32.13,32.13,0,0,0,0-12.36,15.34,15.34,0,0,0-1.94-5.06,10.1,10.1,0,0,0-3.5-3.41,11.71,11.71,0,0,0-10.53,0,10.1,10.1,0,0,0-3.5,3.41,15.34,15.34,0,0,0-1.94,5.06,32.13,32.13,0,0,0,0,12.36,15.31,15.31,0,0,0,1.94,5.07,10.07,10.07,0,0,0,3.5,3.4A10.27,10.27,0,0,0,544.93,647.78Z"/><path class="cls-48" d="M571,647.78v-.45h5.19v-9l-9.65-21.85h-5.18V616h12.55v.46h-5.19l9.18,20.76h.26l9.07-20.76H582V616h11v.46h-5.19l-9.59,21.85v9h5.19v.45Z"/><path class="cls-49" d="M597.77,647.78v-.45H603V616.44h-5.18V616h22.29v12.86h-.51V624.3a18.2,18.2,0,0,0-.44-4.55,5.93,5.93,0,0,0-1.12-2.34,2.48,2.48,0,0,0-1.5-.86,12.94,12.94,0,0,0-1.61-.11H605v15.22h9.85v.45H605v15.22h9.85a11.32,11.32,0,0,0,1.61-.12,2.43,2.43,0,0,0,1.5-.86,5.93,5.93,0,0,0,1.12-2.34,18.11,18.11,0,0,0,.44-4.54v-4.54h.51v12.85Z"/><path class="cls-50" d="M641.48,647.78v-.45h5.18l-5.34-10.72h-.67a10.89,10.89,0,0,1-2.26-.23,6.44,6.44,0,0,1-1.94-.73,3,3,0,0,1-1.32-1.31,1,1,0,0,1,.07-1.14,1.61,1.61,0,0,1,1.33-.48,5,5,0,0,1,1.89.48,5.65,5.65,0,0,1,1.68,1.16,20.49,20.49,0,0,1,1.38,1.52l.15.23a6.49,6.49,0,0,0,3-1.05,7.8,7.8,0,0,0,2.18-2.18,10.21,10.21,0,0,0,1.32-3,14.24,14.24,0,0,0,.44-3.59,13.9,13.9,0,0,0-.52-3.83,9.67,9.67,0,0,0-1.53-3.14,7.43,7.43,0,0,0-2.46-2.11,7,7,0,0,0-3.37-.77h-6.48v30.89h5.18v.45H626.91v-.45h5.18V616.44h-5.18V616h13.74a9.12,9.12,0,0,1,3.83.82,10.41,10.41,0,0,1,3.17,2.2,10.8,10.8,0,0,1,2.15,3.27,10.55,10.55,0,0,1,.13,7.73,10.66,10.66,0,0,1-1.84,3.11,10.14,10.14,0,0,1-6.09,3.41l7.41,10.81h5.18v.45Zm-.42-11.63c-.24-.3-.62-.72-1.14-1.25a6.35,6.35,0,0,0-1.81-1.29,3.87,3.87,0,0,0-1.48-.41,1.17,1.17,0,0,0-1,.27c-.18.21-.16.5,0,.87a2.62,2.62,0,0,0,1,.95,6,6,0,0,0,1.86.68,11.59,11.59,0,0,0,2.08.18Z"/><path class="cls-51" d="M661,647.78v-.45h5.19V616.44H661V616h12.45v.46h-5.19v30.89h5.19v.45Z"/><path class="cls-52" d="M700.48,647.78v-.45h5.18l-3-8.45H688.24l-3,8.45h5.18v.45H679.48v-.45h5.19l11.3-31.8h.57l11.3,31.8H713v.45Zm-5-29.25-7.05,19.89h14.1Z"/></svg>